<?xml version="1.0" encoding="utf-8" ?>
<svg xmlns="http://www.w3.org/2000/svg" xmlns:xlink="http://www.w3.org/1999/xlink" width="1024" height="1024">
	<path fill="#093E64" d="M912.312 432.008L928.011 431.992L928.001 447.972L912.164 447.972L912.312 432.008Z"/>
	<path fill="#074978" d="M144.086 575.824L160.019 576.019L159.992 591.997C154.855 591.991 149.126 592.56 144.054 591.991L144.086 575.824Z"/>
	<path fill="#074978" d="M111.96 639.991L112.014 624.043L128.029 624.021L127.955 639.977L111.96 639.991Z"/>
	<path fill="#0164C7" d="M752.015 159.981L768 160.013L768.02 175.976L752.045 176L752.015 159.981Z"/>
	<path fill="#0164C7" d="M880 192.002L895.987 192.022L895.977 208.019L880.029 207.965L880 192.002Z"/>
	<path fill="#074978" d="M511.962 368.042L527.976 368.025L527.956 384.044L512.005 384.018L511.962 368.042Z"/>
	<path fill="#0164C7" d="M927.955 368.038L944.056 368.012L943.908 384.097L928.022 383.972L927.955 368.038Z"/>
	<path fill="#093E64" d="M767.955 432.018L784.016 432.018L784.006 448.046L768.019 448.018L767.955 432.018Z"/>
	<path fill="#0164C7" d="M799.99 128.009L816.005 127.995L815.987 144.016L800.029 143.972L799.99 128.009Z"/>
	<path fill="#093E64" d="M432.021 752.015L447.986 751.988L448.015 767.979L432.005 768.012L432.021 752.015Z"/>
	<path fill="#093E64" d="M736.074 479.98L735.992 464.017L752.011 464.014L752.067 480.017L736.074 479.98Z"/>
	<path fill="#0164C7" d="M863.981 176.013L880.013 175.992L880 192.002L864.029 191.965L863.981 176.013Z"/>
	<path fill="#093E64" d="M784.016 432.018L783.987 416.016L799.989 415.988L800.012 432.069L784.016 432.018Z"/>
	<path fill="#093E64" d="M608.046 607.954L623.964 608.028L624.04 623.959L608.004 624.036L608.046 607.954Z"/>
	<path fill="#AB8159" d="M736.006 592.031L752.014 592.031L752.04 608.082L736.004 608.02L736.006 592.031Z"/>
	<path fill="#AB8159" d="M415.927 735.986L431.987 735.986L432.021 752.015L415.951 752.081L415.927 735.986Z"/>
	<path fill="#84B1CD" d="M112.005 703.93L127.999 704.137L127.995 720.004C122.935 720.665 117.163 720.258 112.021 720.429L112.005 703.93Z"/>
	<path fill="#093E64" d="M496.044 784.038L527.967 783.97L527.999 799.971L496.06 799.971L496.044 784.038Z"/>
	<path fill="#108EC7" d="M928.459 303.573L928.838 303.791C929.953 304.258 931.551 304.039 932.744 304.04L943.974 304.016L944.026 319.827L933.296 319.623C931.663 319.626 929.573 319.399 928.001 319.75C924.66 320.079 921.312 320.026 917.959 320.026C916.133 320.027 914.116 319.772 912.397 320.41L912.014 320.433L911.977 304.009L922.394 304.026C924.072 304.023 926.211 304.272 927.824 303.782L928.459 303.573Z"/>
	<path fill="#093E64" d="M495.996 655.996L495.998 640.016L527.97 639.977L527.944 656.016L495.996 655.996Z"/>
	<path fill="#0164C7" d="M944.056 368.012L959.5 368.08C960.15 369.023 959.925 369.138 959.821 370.23L959.93 400.047L944.023 399.972L943.908 384.097L944.056 368.012Z"/>
	<path fill="#108EC7" d="M944.056 368.012L959.5 368.08C960.15 369.023 959.925 369.138 959.821 370.23L959.747 370.714C959.32 373.805 959.497 376.956 959.542 380.068C959.559 381.238 959.816 382.974 959.327 384.006L943.908 384.097L944.056 368.012Z"/>
	<path fill="#093E64" d="M512.025 720.011L527.967 719.982L527.965 752.03L512.023 752L512.025 720.011Z"/>
	<path fill="#093E64" d="M527.965 752.03L543.953 751.987L543.998 784.025L527.967 783.97L527.965 752.03Z"/>
	<path fill="#093E64" d="M768.025 272.021L783.978 272.007L783.98 303.984L768.001 304.002L768.025 272.021Z"/>
	<path fill="#093E64" d="M527.97 639.977L527.997 624.015L559.983 623.981L560 640.028L527.97 639.977Z"/>
	<path fill="#093E64" d="M448.015 767.979L479.994 768.02L479.994 784.029L448.011 784.009L448.015 767.979Z"/>
	<path fill="#093E64" d="M495.996 655.996L496.017 672.041L464.004 672.001L463.998 656.025L495.996 655.996Z"/>
	<path fill="#0164C7" d="M912.001 272L943.975 272.052L943.99 288.118L933.555 288.059C931.865 288.052 930.025 287.806 928.423 288.373C926.723 287.702 924.8 287.972 922.984 287.973L912.013 288.003L912.001 272Z"/>
	<path fill="#0675C2" d="M768.136 112.027L799.963 112.026L799.99 128.009L755.741 127.917C759.63 127.311 763.975 127.549 767.923 127.494L768.136 112.027Z"/>
	<path fill="#108EC7" d="M959.93 400.047L975.848 400.109L975.959 448.054L959.99 448.028L959.999 416.02L959.93 400.047Z"/>
	<path fill="#093E64" d="M687.956 560.039L735.958 559.989L735.993 575.997L687.98 575.992L687.956 560.039Z"/>
	<path fill="#0675C2" d="M912.397 320.41C914.116 319.772 916.133 320.027 917.959 320.026C921.312 320.026 924.66 320.079 928.001 319.75L927.929 335.668L927.9 352.321C922.963 351.47 917.021 351.775 911.993 351.938C907.261 352.695 901.109 352.045 896.246 352.041L895.862 351.923C896.333 347.446 896.712 340.383 895.542 336.087L896.083 335.957L912.012 336.009L912.014 320.433L912.397 320.41Z"/>
	<path fill="#0164C7" d="M912.397 320.41C914.116 319.772 916.133 320.027 917.959 320.026C921.312 320.026 924.66 320.079 928.001 319.75L927.929 335.668C923.016 336.554 917.306 336.106 912.295 336.177L912.397 320.41Z"/>
	<path fill="#D0E8F2" d="M755.741 127.917L799.99 128.009L800.029 143.972L752.011 144.023L751.994 132.286C751.992 130.74 751.717 129.471 752.5 128.117L755.741 127.917Z"/>
	<path fill="#108EC7" d="M784.01 399.916C789.181 400.161 794.967 399.198 799.996 399.839L799.989 415.988L783.987 416.016L784.016 432.018L767.955 432.018C767.006 430.416 767.449 428.891 767.342 427.064C767.287 426.12 767.192 425.555 767.503 424.625L767.755 424L767.521 422.67C767.709 420.487 767.569 418.181 767.918 416.003L767.979 399.993L784.01 399.916Z"/>
	<path fill="#093E64" d="M351.993 704.013L400.02 704.005L400.036 719.882L335.925 719.918L336 704.023L351.993 704.013Z"/>
	<path fill="#0164C7" d="M815.987 144.016L847.936 144.046C847.891 148.693 847.013 155.651 848.007 160.057L863.95 160.075L863.981 176.013L832.029 175.964L832.026 159.995L816.029 159.965L815.987 144.016Z"/>
	<path fill="#89BBD5" d="M127.995 720.004L128.694 719.865C130.527 719.917 132.468 720.112 134.288 719.926L176.071 719.927L192.005 720L192.015 736.017L160.058 736.048L128.058 736.131L127.995 720.004Z"/>
	<path fill="#074978" d="M959.99 448.028L975.959 448.054L976 464.057L959.914 464.009L959.96 495.977L944.09 495.96L944.142 479.94L928.033 479.997L928.01 464.016L944.006 464.001L944.008 448.058L959.99 448.028Z"/>
	<path fill="#0164C7" d="M752.015 159.981L736.049 159.995L736.078 143.99L720.031 144.031L720.032 128.031L736.075 128.013L736.04 112.067L768.136 112.027L767.923 127.494C763.975 127.549 759.63 127.311 755.741 127.917L752.5 128.117C751.717 129.471 751.992 130.74 751.994 132.286L752.011 144.023L752.015 159.981Z"/>
	<path fill="#093E64" d="M832.02 400.031L866.076 400.013C870.459 400.01 875.703 400.586 880.001 399.964L880.014 415.979L799.989 415.988L799.996 399.839L832.02 400.031Z"/>
	<path fill="#0164C7" d="M895.977 208.019L911.983 208.02L911.964 240.053L927.947 240.066L927.92 255.987L912.034 255.964L912.001 272L895.996 272.009L896.007 240.025L895.977 208.019Z"/>
	<path fill="#093E64" d="M640.015 368.013L640.048 352.306C642.172 351.226 649.196 352.027 651.786 352.026L688.121 352.022L688.095 336.101L704.002 336.027L703.995 351.958L704.012 368.002L688.001 368L640.015 368.013Z"/>
	<path fill="#89BBD5" d="M768.059 192.064L783.996 192.055L783.979 207.977L784.007 256.083L783.978 272.007L768.025 272.021L768.094 265.286L768.023 207.996L768.059 192.064Z"/>
	<path fill="#84B1CD" d="M768.094 265.286C768.981 262.582 768.536 258.867 768.496 256.012L784.007 256.083L783.978 272.007L768.025 272.021L768.094 265.286Z"/>
	<path fill="#093E64" d="M768.059 192.064L783.996 192.055L783.979 207.977L768.023 207.996L768.059 192.064Z"/>
	<path fill="#D0E8F2" d="M895.996 272.009L912.001 272L912.013 288.003L922.984 287.973C924.8 287.972 926.723 287.702 928.423 288.373L928.459 303.573L927.824 303.782C926.211 304.272 924.072 304.023 922.394 304.026L911.977 304.009L912.014 320.433L912.012 336.009L896.083 335.957L895.996 272.009Z"/>
	<path fill="#093E64" d="M720.059 351.953L720.04 336.046L736.269 336.036C735.699 330.952 736.116 325.258 736.099 320.113L751.983 320.051C752.478 318.67 752.229 316.933 752.22 315.47L752.138 304.078L768.001 304.002L767.986 319.997L768.022 352.003L735.956 352.001L720.059 351.953Z"/>
	<path fill="#074978" d="M128.26 671.933L144.08 672.012L159.88 671.925L160.015 688.01L159.966 699.828C159.959 701.317 159.71 702.684 160.425 704.019C159.783 707.014 160.051 710.232 160.06 713.285C160.065 715.274 159.842 717.474 160.402 719.387C165.337 719.463 171.275 718.943 176.071 719.927L134.288 719.926C132.468 720.112 130.527 719.917 128.694 719.865L127.995 720.004L127.999 704.137L128.009 688.435L128.327 688.089C127.854 686.374 128.081 684.254 128.102 682.472L128.26 671.933Z"/>
	<path fill="#89BBD5" d="M128.26 671.933L144.08 672.012L159.88 671.925L160.015 688.01L128.327 688.089C127.854 686.374 128.081 684.254 128.102 682.472L128.26 671.933Z"/>
	<path fill="#4293AB" d="M160.016 671.678C164.992 672.661 170.926 672.013 176.022 671.981L191.994 671.996L192.005 688.01L192.024 704.014L207.978 704.029L207.979 719.975L192.005 720L176.071 719.927C171.275 718.943 165.337 719.463 160.402 719.387C159.842 717.474 160.065 715.274 160.06 713.285C160.051 710.232 159.783 707.014 160.425 704.019C159.71 702.684 159.959 701.317 159.966 699.828L160.015 688.01L159.88 671.925L160.016 671.678Z"/>
	<path fill="#093E64" d="M176.022 671.981L191.994 671.996L192.005 688.01L176.021 688.001L176.022 671.981Z"/>
	<path fill="#093E64" d="M192.024 704.014L207.978 704.029L207.979 719.975L192.005 720L176.071 719.927C171.275 718.943 165.337 719.463 160.402 719.387C159.842 717.474 160.065 715.274 160.06 713.285C160.051 710.232 159.783 707.014 160.425 704.019L192.024 704.014Z"/>
	<path fill="#84B1CD" d="M192.024 704.014L207.978 704.029L207.979 719.975L192.005 720L192.024 704.014Z"/>
	<path fill="#093E64" d="M655.989 624.014L720.023 624.009L720.006 608.012L736.004 608.02L736.013 640.003L624.042 639.977L624.04 623.959L640.036 624L655.989 624.014Z"/>
	<path fill="#074978" d="M111.964 656.033L127.991 656.029L128.022 671.709L128.26 671.933L128.102 682.472C128.081 684.254 127.854 686.374 128.327 688.089L128.009 688.435L127.999 704.137L112.005 703.93C110.909 704.262 109.044 703.994 107.826 703.998L95.9928 704.03L80.0627 704.014L80.0635 672.067L96.084 672.044L96.0547 656.029L111.964 656.033Z"/>
	<path fill="#84B1CD" d="M128.022 671.709L128.26 671.933L128.102 682.472C128.081 684.254 127.854 686.374 128.327 688.089L128.009 688.435C124.25 687.038 116.228 687.99 112.008 688.008L111.993 672.012C116.859 672.024 122.281 672.516 127.078 671.85L128.022 671.709Z"/>
	<path fill="#89BBD5" d="M95.9928 704.03L95.9953 688.011L112.008 688.008C116.228 687.99 124.25 687.038 128.009 688.435L127.999 704.137L112.005 703.93C110.909 704.262 109.044 703.994 107.826 703.998L95.9928 704.03Z"/>
	<path fill="#89BBD5" d="M880.001 399.964L911.946 400.029L911.96 416.017L943.998 416.01L959.999 416.02L959.99 448.028L944.008 448.058L944.006 464.001L928.01 464.016L928.078 456.291L928.001 447.972L928.011 431.992L912.312 432.008L895.991 432.025L880.009 432.009L880.014 415.979L880.001 399.964Z"/>
	<path fill="#093E64" d="M880.014 415.979L896.01 415.991L895.991 432.025L880.009 432.009L880.014 415.979Z"/>
	<path fill="#E4C292" d="M687.98 575.992L735.993 575.997L736.006 592.031L736.004 608.02L720.006 608.012L720.023 624.009L655.989 624.014L655.986 608L703.995 607.982L703.998 592.006L671.991 592.014L671.985 576.001L687.98 575.992Z"/>
	<path fill="#074978" d="M527.956 384.044L576.07 384.039L576.064 368.301C577.084 367.777 578.661 368.022 579.802 368.021L589.945 368.02L640.015 368.013L640.014 383.982L640.02 394.756C640.023 396.445 639.784 398.36 640.323 399.967L639.927 400.135C634.895 399.527 629.103 399.987 623.996 399.963L608.018 399.993L591.964 399.959L575.947 399.984L559.984 399.985L528.025 400.026L527.956 384.044Z"/>
	<path fill="#F4F6F7" d="M591.964 399.959L591.985 383.999L608.018 383.993L608.018 399.993L591.964 399.959Z"/>
	<path fill="#D0E8F2" d="M640.014 383.982L640.02 394.756C640.023 396.445 639.784 398.36 640.323 399.967L639.927 400.135C634.895 399.527 629.103 399.987 623.996 399.963L623.988 384.004L640.014 383.982Z"/>
	<path fill="#074978" d="M496.068 307.313L496.25 304.503C497.457 303.791 499.075 304.059 500.476 304.059L512.716 304.051L559.962 304.024L559.995 336.008L543.907 335.989L543.981 351.997L512.024 351.964L511.962 368.042L496.013 367.996L496.01 352.009L496.014 335.994C496.534 332.549 496.237 328.741 496.241 325.251L496.068 307.313Z"/>
	<path fill="#AB8159" d="M496.014 335.994L512.016 336.001L512.003 351.982L496.01 352.009L496.014 335.994Z"/>
	<path fill="#62635B" d="M656.027 560.006L687.956 560.039L687.98 575.992L671.985 576.001L671.991 592.014L703.998 592.006L703.995 607.982L655.986 608L655.989 624.014L640.036 624L624.04 623.959L623.964 608.028L608.046 607.954L608.032 592.03L624.016 592.004L624.021 576.019L640.019 576.011L639.989 560.007L656.027 560.006Z"/>
	<path fill="#AB8159" d="M608.032 592.03L624.016 592.004L623.964 608.028L608.046 607.954L608.032 592.03Z"/>
	<path fill="#AB8159" d="M623.964 608.028L640.013 608.005L640.036 624L624.04 623.959L623.964 608.028Z"/>
	<path fill="#093E64" d="M256.001 720.003L335.925 719.918L335.949 735.994L285.882 735.92L275.546 735.925C274.382 735.925 272.943 735.7 271.891 736.223L271.993 751.982L160.053 751.942L160.058 736.048L192.015 736.017L192.005 720L207.979 719.975L256.001 720.003Z"/>
	<path fill="#4293AB" d="M207.979 719.975L256.001 720.003L255.989 735.989L207.986 736.033L207.979 719.975Z"/>
	<path fill="#84B1CD" d="M911.993 351.938C917.021 351.775 922.963 351.47 927.9 352.321L927.955 368.038L928.022 383.972L943.908 384.097L944.023 399.972L959.93 400.047L959.999 416.02L943.998 416.01L911.96 416.017L911.946 400.029L880.001 399.964C875.703 400.586 870.459 400.01 866.076 400.013L832.02 400.031L832.08 368.018L848.015 368.006L848.002 352.018L895.862 351.923L896.246 352.041C901.109 352.045 907.261 352.695 911.993 351.938Z"/>
	<path fill="#D0E8F2" d="M944.023 399.972L959.93 400.047L959.999 416.02L943.998 416.01L944.023 399.972Z"/>
	<path fill="#D0E8F2" d="M912.108 368.06L927.955 368.038L928.022 383.972L911.991 384.02L912.108 368.06Z"/>
	<path fill="#D0E8F2" d="M928.022 383.972L943.908 384.097L944.023 399.972L927.992 400.019L928.022 383.972Z"/>
	<path fill="#89BBD5" d="M911.993 351.938C917.021 351.775 922.963 351.47 927.9 352.321L927.955 368.038L912.108 368.06L896.036 368.033L896.246 352.041C901.109 352.045 907.261 352.695 911.993 351.938Z"/>
	<path fill="#0164C7" d="M911.993 351.938C917.021 351.775 922.963 351.47 927.9 352.321L927.955 368.038L912.108 368.06L911.993 351.938Z"/>
	<path fill="#FDFBC6" d="M416.017 688.007L431.966 687.993L463.963 687.991L467.508 687.932L480.025 687.985L480.061 703.956L496.107 703.979L496.115 719.99L512.025 720.011L512.023 752L527.965 752.03L527.967 783.97L496.044 784.038L479.994 784.029L479.994 768.02L448.015 767.979L447.986 751.988L432.021 752.015L431.987 735.986L415.927 735.986L400.038 736.032L400.036 719.882L400.02 704.005L399.992 688L416.017 688.007Z"/>
	<path fill="#E4C292" d="M431.966 687.993L463.963 687.991L463.995 720.018L480.004 719.988L479.994 736.026L496.003 735.989L496.009 752.004L447.986 751.988L432.021 752.015L431.987 735.986L463.995 735.982L463.99 720.018L447.991 720.013L447.999 704.004L431.991 704.013L431.966 687.993Z"/>
	<path fill="#62635B" d="M416.017 688.007L431.966 687.993L431.991 704.013L447.999 704.004L447.991 720.013L463.99 720.018L463.995 735.982L431.987 735.986L415.927 735.986L400.038 736.032L400.036 719.882L400.02 704.005L399.992 688L416.017 688.007Z"/>
	<path fill="#89BBD5" d="M159.992 591.997L207.994 591.985L207.991 608.201C213.036 607.541 218.889 608.03 224.017 608.021L224.012 592.022L239.95 591.923L239.963 615.302C239.951 617.547 239.382 622.136 240.428 624.004L240.006 624.427L240 639.996L223.936 640.006L223.989 671.983L191.994 671.996L176.022 671.981C170.926 672.013 164.992 672.661 160.016 671.678L159.88 671.925L144.08 672.012L128.26 671.933L128.022 671.709L127.991 656.029L111.964 656.033L111.96 639.991L127.955 639.977L128.029 624.021L128.076 608.08L144.151 608.014L144.054 591.991C149.126 592.56 154.855 591.991 159.992 591.997Z"/>
	<path fill="#093E64" d="M160.028 655.994L176.17 655.987L176.022 671.981C170.926 672.013 164.992 672.661 160.016 671.678L160.028 655.994Z"/>
	<path fill="#98B2C3" d="M223.936 640.006C223.995 639.236 223.998 639.537 223.964 638.866L224.045 624.073C229.059 624.035 235.149 623.308 240.006 624.427L240 639.996L223.936 640.006Z"/>
	<path fill="#F4F6F7" d="M127.955 639.977L144.011 640.011L144.039 656L160.028 655.994L160.016 671.678L159.88 671.925L144.08 672.012L128.26 671.933L128.022 671.709L127.991 656.029L111.964 656.033L111.96 639.991L127.955 639.977Z"/>
	<path fill="#98B2C3" d="M735.956 352.001L768.022 352.003L768.109 383.995L784.008 384.008L784.01 399.916L767.979 399.993L767.918 416.003L757.215 416.014C755.503 416.017 753.635 415.806 751.99 416.298L752.015 432.003L735.986 432.002L720.019 432.003L704.032 432.021L703.996 447.997L672.013 448.029L655.997 448.011L640.001 447.998L640.01 432.047L640.009 416.005L639.927 400.135L640.323 399.967C639.784 398.36 640.023 396.445 640.02 394.756L640.014 383.982L640.015 368.013L688.001 368L704.012 368.002L703.995 351.958L720.059 351.953L735.956 352.001Z"/>
	<path fill="#108EC7" d="M640.009 416.005L655.995 415.984L656.031 431.977L640.01 432.047L640.009 416.005Z"/>
	<path fill="#108EC7" d="M640.01 432.047L656.031 431.977L672.014 432.005L672.013 448.029L655.997 448.011L640.001 447.998L640.01 432.047Z"/>
	<path fill="#4293AB" d="M640.01 432.047L656.031 431.977L655.997 448.011L640.001 447.998L640.01 432.047Z"/>
	<path fill="#F4F6F7" d="M640.015 368.013L688.001 368L688.002 384.019L656.009 384.002L656.02 400.02L640.323 399.967C639.784 398.36 640.023 396.445 640.02 394.756L640.014 383.982L640.015 368.013Z"/>
	<path fill="#108EC7" d="M735.956 352.001L768.022 352.003L768.109 383.995L784.008 384.008L784.01 399.916L767.979 399.993L767.918 416.003L757.215 416.014C755.503 416.017 753.635 415.806 751.99 416.298L752.015 432.003L735.986 432.002L720.019 432.003L704.032 432.021L687.996 432.015L687.972 415.998L704.015 416.001L703.973 399.998L720.015 400.001L719.977 383.976L735.993 383.983L735.956 352.001Z"/>
	<path fill="#4293AB" d="M736.005 415.93L735.986 432.002L720.019 432.003L720.03 416.003L736.005 415.93Z"/>
	<path fill="#D0E8F2" d="M736.005 415.93L735.992 400.009L752.019 400.003C752.006 405.031 752.551 411 751.817 415.922L736.005 415.93Z"/>
	<path fill="#98B2C3" d="M736.005 415.93L751.817 415.922L751.99 416.298L752.015 432.003L735.986 432.002L736.005 415.93Z"/>
	<path fill="#84B1CD" d="M768.109 383.995L784.008 384.008L784.01 399.916L767.979 399.993L767.918 416.003L757.215 416.014C755.503 416.017 753.635 415.806 751.99 416.298L751.817 415.922C752.551 411 752.006 405.031 752.019 400.003L752.01 384.025L768.109 383.995Z"/>
	<path fill="#097BA9" d="M751.99 416.298C753.635 415.806 755.503 416.017 757.215 416.014L767.918 416.003C767.569 418.181 767.709 420.487 767.521 422.67L767.755 424L767.503 424.625C767.192 425.555 767.287 426.12 767.342 427.064C767.449 428.891 767.006 430.416 767.955 432.018L768.019 448.018L768.038 464.01L752.011 464.014L735.992 464.017L736.074 479.98L719.944 479.985L719.947 496.057L719.984 512.002L704.054 511.988L687.646 512.019C687.689 517.005 688.364 523.174 687.612 528.036L671.987 528.002L672.031 544.046L687.96 543.996L687.956 560.039L656.027 560.006L639.989 560.007L640.019 576.011L624.021 576.019L624.016 592.004L608.032 592.03L608.046 607.954L591.963 607.989L591.994 623.998L559.983 623.981L527.997 624.015L527.97 639.977L495.998 640.016L495.996 655.996L463.998 656.025L464.004 672.001L464.034 687C465.108 687.954 466.116 687.782 467.508 687.932L463.963 687.991L431.966 687.993L416.017 688.007L416.075 656.453L415.897 655.891L416.011 639.936C415.982 635.229 415.035 628.406 416.4 623.987L431.95 623.927L448.008 624L447.987 607.988L463.989 608.006L496.028 608.025L496.01 592.022L560.047 592.03L560.009 576.029L576.048 576.03L576.009 560.025L592.028 560.025L592.009 544.022L608.027 544.014L608.007 528.022L640.018 528.018L640.005 512.023L656.038 512.018L656.003 496.005L655.997 448.011L672.013 448.029L703.996 447.997L704.032 432.021L720.019 432.003L735.986 432.002L752.015 432.003L751.99 416.298Z"/>
	<path fill="#093E64" d="M704.054 511.988L703.998 496.023L719.947 496.057L719.984 512.002L704.054 511.988Z"/>
	<path fill="#093E64" d="M416.4 623.987L431.95 623.927L431.996 640L416.011 639.936C415.982 635.229 415.035 628.406 416.4 623.987Z"/>
	<path fill="#093E64" d="M752.011 464.014L751.993 448.021L768.019 448.018L768.038 464.01L752.011 464.014Z"/>
	<path fill="#4293AB" d="M704.032 432.021L720.019 432.003L720.002 447.99L703.996 447.997L704.032 432.021Z"/>
	<path fill="#093E64" d="M624.021 576.019L623.989 560.005L639.989 560.007L640.019 576.011L624.021 576.019Z"/>
	<path fill="#093E64" d="M608.032 592.03L607.985 576.014L624.021 576.019L624.016 592.004L608.032 592.03Z"/>
	<path fill="#093E64" d="M672.031 544.046L687.96 543.996L687.956 560.039L656.027 560.006L655.979 544.02L672.031 544.046Z"/>
	<path fill="#093E64" d="M559.983 623.981L559.998 608.014L576.014 608.02L575.985 592.016L608.032 592.03L608.046 607.954L591.963 607.989L591.994 623.998L559.983 623.981Z"/>
	<path fill="#093E64" d="M416.075 656.453C420.174 655.044 427.514 655.986 431.987 656.003L431.993 672.038L464.004 672.001L464.034 687C465.108 687.954 466.116 687.782 467.508 687.932L463.963 687.991L431.966 687.993L416.017 688.007L416.075 656.453Z"/>
	<path fill="#4293AB" d="M672.013 448.029L703.996 447.997L704.002 463.983L687.966 463.984L687.996 479.984L671.966 479.984L671.996 495.984L656.003 496.005L655.997 448.011L672.013 448.029Z"/>
	<path fill="#89BBD5" d="M752.011 144.023L800.029 143.972L815.987 144.016L816.029 159.965L832.026 159.995L832.029 175.964L863.981 176.013L864.029 191.965L880 192.002L880.029 207.965L895.977 208.019L896.007 240.025L895.996 272.009L896.083 335.957L895.542 336.087C896.712 340.383 896.333 347.446 895.862 351.923L848.002 352.018L848.015 368.006L832.08 368.018L832.02 400.031L799.996 399.839C794.967 399.198 789.181 400.161 784.01 399.916L784.008 384.008L768.109 383.995L768.022 352.003L767.986 319.997L768.001 304.002L783.98 303.984L783.978 272.007L784.007 256.083L783.979 207.977L783.996 192.055L768.059 192.064L768.02 175.976L768 160.013L752.015 159.981L752.011 144.023Z"/>
	<path fill="#0164C7" d="M768.02 175.976L784.01 175.983L783.996 192.055L768.059 192.064L768.02 175.976Z"/>
	<path fill="#F4F6F7" d="M816.029 159.965L832.026 159.995L832.029 175.964L815.99 176.023L816.029 159.965Z"/>
	<path fill="#F4F6F7" d="M800.029 143.972L815.987 144.016L816.029 159.965L799.999 160.025L800.029 143.972Z"/>
	<path fill="#F4F6F7" d="M864.029 191.965L880 192.002L880.029 207.965L863.99 208.025L864.029 191.965Z"/>
	<path fill="#108EC7" d="M816 271.997L815.982 240.003L832.015 239.979L832.021 272.015L816 271.997Z"/>
	<path fill="#F4F6F7" d="M880.029 207.965L895.977 208.019L896.007 240.025L879.991 240.018L880.029 207.965Z"/>
	<path fill="#F4F6F7" d="M832.029 175.964L863.981 176.013L864.029 191.965L831.99 192.024L832.029 175.964Z"/>
	<path fill="#097BA9" d="M783.979 207.977L800.012 207.982L800.005 271.997L783.978 272.007L784.007 256.083L783.979 207.977Z"/>
	<path fill="#097BA9" d="M816.271 304.017L832 303.99L831.976 287.991L848.005 287.992L847.984 256.001L880.018 255.988L880.017 272.015L864 272.017L864.018 304.017L848.005 304.017L848.02 320.018L832.005 320.02L832.005 336.004L895.542 336.087C896.712 340.383 896.333 347.446 895.862 351.923L848.002 352.018L848.015 368.006L832.08 368.018L832.02 400.031L799.996 399.839C794.967 399.198 789.181 400.161 784.01 399.916L784.008 384.008L768.109 383.995L768.022 352.003L767.986 319.997L768.001 304.002L783.98 303.984L783.978 272.007L800.005 271.997L816 271.997L816.012 295.081C816.017 297.794 815.508 301.465 816.271 304.017Z"/>
	<path fill="#98B2C3" d="M832.081 352.001L816.01 352.009L816 336.013L832.005 336.004C832.012 340.878 831.244 347.299 832.081 352.001Z"/>
	<path fill="#84B1CD" d="M768.001 304.002L783.98 303.984L784.008 319.996L767.986 319.997L768.001 304.002Z"/>
	<path fill="#108EC7" d="M800.005 271.997L816 271.997L816.012 295.081C816.017 297.794 815.508 301.465 816.271 304.017L816.098 304.077L815.995 320.004L799.976 320.028L799.945 303.973L783.98 303.984L783.978 272.007L800.005 271.997Z"/>
	<path fill="#89BBD5" d="M783.978 272.007L800.005 271.997L799.945 303.973L783.98 303.984L783.978 272.007Z"/>
	<path fill="#4293AB" d="M288.027 528L303.988 527.988L303.993 544.016L303.999 560.001L303.997 576.032L320.018 576.008L320.027 592.016L335.982 591.996L351.995 592L367.953 592.013L383.999 591.995C389.463 592.027 412.916 591.08 415.933 592.46L416.007 608.008L415.983 618.733C415.991 620.436 415.734 622.41 416.4 623.987C415.035 628.406 415.982 635.229 416.011 639.936L415.897 655.891L416.075 656.453L416.017 688.007L399.992 688L400.02 704.005L351.993 704.013L336 704.023L335.925 719.918L256.001 720.003L207.979 719.975L207.978 704.029L192.024 704.014L192.005 688.01L191.994 671.996L223.989 671.983L223.936 640.006L240 639.996L240.006 624.427L240.428 624.004C239.382 622.136 239.951 617.547 239.963 615.302L239.95 591.923L240.007 576.019L255.897 575.917L255.979 575.722L256.011 559.993L256.01 544.015L288.026 544.007L288.027 528Z"/>
	<path fill="#093E64" d="M192.005 688.01L208.008 688.005L207.978 704.029L192.024 704.014L192.005 688.01Z"/>
	<path fill="#98B2C3" d="M240.024 656.01L256.005 656.004L256.007 671.985L240.018 672.001L240.024 656.01Z"/>
	<path fill="#98B2C3" d="M256.011 559.993L272.012 560.003L272.01 575.973C266.89 576.02 260.989 576.666 255.979 575.722L256.011 559.993Z"/>
	<path fill="#98B2C3" d="M288.027 528L303.988 527.988L303.993 544.016L303.999 560.001L287.993 560.031L288.026 544.007L288.027 528Z"/>
	<path fill="#093E64" d="M352.003 640.024L367.999 640.005L367.997 655.968L368.005 687.997L352.024 688.008L352.003 640.024Z"/>
	<path fill="#093E64" d="M207.978 704.029L256.006 703.986L256.001 720.003L207.979 719.975L207.978 704.029Z"/>
	<path fill="#84B1CD" d="M255.979 575.722C260.989 576.666 266.89 576.02 272.01 575.973L272.001 597.527C271.998 600.963 272.33 604.69 271.881 608.071L272.023 608.36L272.023 624.027L255.981 624.016L240.428 624.004C239.382 622.136 239.951 617.547 239.963 615.302L239.95 591.923L240.007 576.019L255.897 575.917L255.979 575.722Z"/>
	<path fill="#89BBD5" d="M239.95 591.923L240.007 576.019L255.897 575.917C256.507 581.153 256.074 586.755 256.036 592.036L239.95 591.923Z"/>
	<path fill="#F4F6F7" d="M255.981 624.016L255.983 608.012L271.881 608.071L272.023 608.36L272.023 624.027L255.981 624.016Z"/>
	<path fill="#98B2C3" d="M287.999 608.002L304.005 608.003L303.997 624.018L320 624.007L320.002 655.998L303.973 655.996L304.006 671.997L271.999 671.996L271.992 656.007L288.003 655.996L287.999 608.002Z"/>
	<path fill="#093E64" d="M272.023 608.36C277.21 607.3 282.758 608.543 287.999 608.002L288.003 655.996L271.992 656.007L271.999 671.996L256.007 671.985L256.005 656.004L240.024 656.01L240 639.996L240.006 624.427L240.428 624.004L255.981 624.016L272.023 624.027L272.023 608.36Z"/>
	<path fill="#84B1CD" d="M415.897 655.891L416.075 656.453L416.017 688.007L399.992 688L400.02 704.005L351.993 704.013L352.024 688.008L368.005 687.997L367.997 655.968L383.844 655.961L415.897 655.891Z"/>
	<path fill="#98B2C3" d="M351.995 592L367.953 592.013L383.999 591.995C389.463 592.027 412.916 591.08 415.933 592.46L416.007 608.008L415.983 618.733C415.991 620.436 415.734 622.41 416.4 623.987C415.035 628.406 415.982 635.229 416.011 639.936L415.897 655.891L383.844 655.961L367.997 655.968L367.999 640.005L352.003 640.024L352.02 607.975L336.007 608.02L335.982 591.996L351.995 592Z"/>
	<path fill="#D0E8F2" d="M383.999 591.995C389.463 592.027 412.916 591.08 415.933 592.46L416.007 608.008L415.983 618.733C415.991 620.436 415.734 622.41 416.4 623.987L383.993 624.022L383.999 591.995Z"/>
	<path fill="#4293AB" d="M608.018 399.993L623.996 399.963C629.103 399.987 634.895 399.527 639.927 400.135L640.009 416.005L640.01 432.047L640.001 447.998L655.997 448.011L656.003 496.005L656.038 512.018L640.005 512.023L640.018 528.018L608.007 528.022L608.027 544.014L592.009 544.022L592.028 560.025L576.009 560.025L576.048 576.03L560.009 576.029L560.047 592.03L496.01 592.022L496.028 608.025L463.989 608.006L447.987 607.988L448.008 624L431.95 623.927L416.4 623.987C415.734 622.41 415.991 620.436 415.983 618.733L416.007 608.008L415.933 592.46C412.916 591.08 389.463 592.027 383.999 591.995L367.953 592.013L351.995 592L352.009 576.01L351.973 560.29C354.43 559.45 358.263 560.005 360.919 560.004L384.003 560.023L384.044 544.374L383.958 543.995L384.003 528.003L400.019 527.991L415.976 527.974L464.024 528.024L464.007 496.035L464.013 480.021L479.977 480.005L496.009 480.028L495.908 464.061L496.037 447.969L511.975 448.014L511.947 432.029L543.998 431.989L559.671 431.964C560.565 429.833 560.001 425.963 560.002 423.598L559.984 399.985L575.947 399.984L591.964 399.959L608.018 399.993Z"/>
	<path fill="#98B2C3" d="M544.013 464.03L560.03 464.024L560.002 479.998L544.013 480.005L544.013 464.03Z"/>
	<path fill="#98B2C3" d="M399.997 560.006L416.004 560.016L415.878 576.074L399.975 575.976L399.997 560.006Z"/>
	<path fill="#98B2C3" d="M560.002 479.998L576.007 480.007L576.008 495.991L560.005 496.004L560.002 479.998Z"/>
	<path fill="#108EC7" d="M559.671 431.964L559.959 432.101L560.03 464.024L544.013 464.03L543.998 431.989L559.671 431.964Z"/>
	<path fill="#84B1CD" d="M496.009 480.028L528.002 479.997L528.009 495.997L479.995 496.021L479.977 480.005L496.009 480.028Z"/>
	<path fill="#097BA9" d="M400.019 527.991L415.976 527.974L416.012 544L432.025 543.97L432.024 560.016L416.004 560.016L399.997 560.006L384.003 560.023L384.044 544.374L383.958 543.995L384.003 528.003L400.019 527.991Z"/>
	<path fill="#108EC7" d="M400.019 527.991L415.976 527.974L416.012 544L400.005 544.066C395.264 544.036 388.534 543.178 384.044 544.374L383.958 543.995L384.003 528.003L400.019 527.991Z"/>
	<path fill="#98B2C3" d="M400.019 527.991L415.976 527.974L416.012 544L400.005 544.066L400.019 527.991Z"/>
	<path fill="#093E64" d="M416.024 576.346C419.498 575.628 423.386 575.979 426.927 575.977L447.996 575.999L447.985 592.027L463.996 592.001L463.989 608.006L447.987 607.988L448.008 624L431.95 623.927L416.4 623.987C415.734 622.41 415.991 620.436 415.983 618.733L416.007 608.008L415.933 592.46L416.082 591.903L416.024 576.346Z"/>
	<path fill="#98B2C3" d="M416.082 591.903L432.003 592.003L432.032 607.989L416.007 608.008L415.933 592.46L416.082 591.903Z"/>
	<path fill="#F4F6F7" d="M416.007 608.008L432.032 607.989L431.95 623.927L416.4 623.987C415.734 622.41 415.991 620.436 415.983 618.733L416.007 608.008Z"/>
	<path fill="#89BBD5" d="M351.973 560.29C354.43 559.45 358.263 560.005 360.919 560.004L384.003 560.023L399.997 560.006L399.975 575.976L415.878 576.074L416.024 576.346L416.082 591.903L415.933 592.46C412.916 591.08 389.463 592.027 383.999 591.995L367.953 592.013L351.995 592L352.009 576.01L351.973 560.29Z"/>
	<path fill="#D0E8F2" d="M352.009 576.01L367.909 575.994L367.953 592.013L351.995 592L352.009 576.01Z"/>
	<path fill="#093E64" d="M351.973 560.29C354.43 559.45 358.263 560.005 360.919 560.004L384.003 560.023L399.997 560.006L399.975 575.976L367.909 575.994L352.009 576.01L351.973 560.29Z"/>
	<path fill="#98B2C3" d="M624.003 464L624.008 448.002L640.001 447.998L655.997 448.011L656.003 496.005L608.002 496.047L607.995 480.015L624.009 480.013L624.003 464Z"/>
	<path fill="#4293AB" d="M624.003 464L624.008 448.002L640.001 447.998L640.009 464.013L624.003 464Z"/>
	<path fill="#98B2C3" d="M480.006 527.99L479.994 512.007L496.013 512.002L496.005 528.013L512.01 528.001L512.037 560.03L464.017 560.036L464.012 544.018L464.024 528.024L480.006 527.99Z"/>
	<path fill="#F4F6F7" d="M464.024 528.024L480.006 527.99L480.012 543.999L464.012 544.018L464.024 528.024Z"/>
	<path fill="#98B2C3" d="M576.008 495.991L592.034 495.999L592.045 528.039L528.016 528.056L528.005 512.023L544.018 512.02L544.005 496.023L560.005 496.004L576.008 495.991Z"/>
	<path fill="#F4F6F7" d="M560.005 496.004L576.008 495.991L576.018 512.014L559.989 512.028L560.005 496.004Z"/>
	<path fill="#D0E8F2" d="M511.975 448.014L511.947 432.029L543.998 431.989L544.013 464.03L544.013 480.005L528.002 479.997L496.009 480.028L495.908 464.061L496.037 447.969L511.975 448.014Z"/>
	<path fill="#F4F6F7" d="M511.975 448.014L527.997 447.996L527.996 464.004L511.995 464.044L511.975 448.014Z"/>
	<path fill="#89BBD5" d="M496.037 447.969L511.975 448.014L511.995 464.044L495.908 464.061L496.037 447.969Z"/>
	<path fill="#98B2C3" d="M608.018 399.993L623.996 399.963C629.103 399.987 634.895 399.527 639.927 400.135L640.009 416.005L640.01 432.047L640.001 447.998L624.008 448.002L624.003 464L591.999 464.022L592.002 447.997L575.999 448.022L576.023 432.003L559.959 432.101L559.671 431.964C560.565 429.833 560.001 425.963 560.002 423.598L559.984 399.985L575.947 399.984L591.964 399.959L608.018 399.993Z"/>
	<path fill="#D0E8F2" d="M592.002 447.997L591.986 432.016L608.014 432.001L608.005 448.003L592.002 447.997Z"/>
	<path fill="#108EC7" d="M623.996 399.963C629.103 399.987 634.895 399.527 639.927 400.135L640.009 416.005L623.992 416.018L623.996 399.963Z"/>
	<path fill="#F4F6F7" d="M575.947 399.984L591.964 399.959L592.013 416.013L576.023 416.01L575.947 399.984Z"/>
	<path fill="#D0E8F2" d="M559.984 399.985L575.947 399.984L576.023 416.01L576.023 432.003L559.959 432.101L559.671 431.964C560.565 429.833 560.001 425.963 560.002 423.598L559.984 399.985Z"/>
	<path fill="#074978" d="M384.022 384.029L384.047 368.102L400.027 368.03L399.955 383.955L384.022 384.029Z"/>
	<path fill="#074978" d="M176.02 560.022L176.038 544.059L192.029 544.025L191.992 559.975L176.02 560.022Z"/>
	<path fill="#074978" d="M367.959 399.989L368.029 384.061L384.022 384.029L383.984 399.98L367.959 399.989Z"/>
	<path fill="#074978" d="M400.027 368.03L400.026 352.037L432.018 352.021L431.999 368.001L415.945 367.986L400.027 368.03Z"/>
	<path fill="#093E64" d="M319.834 463.991C320.415 462.805 320.215 460.611 320.213 459.293L320.137 448.092L336.085 448.04L336.06 432.072L352.019 432.02L351.987 463.978L335.98 463.967L319.834 463.991Z"/>
	<path fill="#074978" d="M255.998 512.055L255.99 528L224.049 527.982L208.024 528.022L208.134 512.146L255.998 512.055Z"/>
	<path fill="#F4F6F7" d="M255.99 528L288.027 528L288.026 544.007L256.01 544.015L256.011 559.993L255.979 575.722L255.897 575.917L240.007 576.019L239.95 591.923L224.012 592.022L224.017 608.021C218.889 608.03 213.036 607.541 207.991 608.201L207.994 591.985L159.992 591.997L160.019 576.019L160.047 560.08L176.02 560.022L191.992 559.975L192.029 544.025L192.125 528.08L208.024 528.022L224.049 527.982L255.99 528Z"/>
	<path fill="#074978" d="M192.029 544.025L192.125 528.08L208.024 528.022L207.974 543.983L192.029 544.025Z"/>
	<path fill="#074978" d="M160.019 576.019L160.047 560.08L176.02 560.022L175.992 575.975L160.019 576.019Z"/>
	<path fill="#89BBD5" d="M255.99 528L288.027 528L288.026 544.007L256.01 544.015L256.011 559.993L240.003 560L240.028 543.975L224.038 544.007L224.049 527.982L255.99 528Z"/>
	<path fill="#F4F6F7" d="M320.255 479.96L336.028 479.913L336.013 496.008L336.056 511.976L367.986 512.029L367.983 527.614C372.303 528.949 379.367 528.032 384.003 528.003L383.958 543.995L384.044 544.374L384.003 560.023L360.919 560.004C358.263 560.005 354.43 559.45 351.973 560.29L352.009 576.01L351.995 592L335.982 591.996L320.027 592.016L320.018 576.008L303.997 576.032L303.999 560.001L303.993 544.016L303.988 527.988L288.027 528L255.99 528L255.998 512.055L256.02 496.036L272.061 495.997L271.999 479.987L288.027 479.996L303.999 479.98L320.255 479.96Z"/>
	<path fill="#074978" d="M288.027 479.996L303.999 479.98L303.98 495.981L288.039 496.008L288.027 479.996Z"/>
	<path fill="#98B2C3" d="M320.004 511.997L336.056 511.976L336.045 522.803C336.041 524.461 336.288 526.406 335.758 527.98L319.995 527.988L320.004 511.997Z"/>
	<path fill="#89BBD5" d="M303.993 544.016L319.915 544L336.087 543.987L336.045 560.029L319.953 560.023L303.999 560.001L303.993 544.016Z"/>
	<path fill="#D0E8F2" d="M303.993 544.016L319.915 544L319.953 560.023L303.999 560.001L303.993 544.016Z"/>
	<path fill="#D0E8F2" d="M367.983 527.614C372.303 528.949 379.367 528.032 384.003 528.003L383.958 543.995L368.008 544.005L351.983 544.008C351.995 548.67 352.806 555.494 351.779 559.92L336.045 560.029L336.087 543.987L351.975 543.974L351.928 528.008L362.022 528.04C363.681 528.039 365.735 528.271 367.339 527.814L367.983 527.614Z"/>
	<path fill="#84B1CD" d="M367.983 527.614C372.303 528.949 379.367 528.032 384.003 528.003L383.958 543.995L368.008 544.005L367.983 527.614Z"/>
	<path fill="#D0E8F2" d="M320.255 479.96L336.028 479.913L336.013 496.008L336.056 511.976L320.004 511.997L303.962 512.036L303.98 495.981L303.999 479.98L320.255 479.96Z"/>
	<path fill="#98B2C3" d="M368.008 544.005L383.958 543.995L384.044 544.374L384.003 560.023L360.919 560.004C358.263 560.005 354.43 559.45 351.973 560.29L352.009 576.01L351.995 592L335.982 591.996L320.027 592.016L320.018 576.008L303.997 576.032L303.999 560.001L319.953 560.023L336.045 560.029L351.779 559.92C352.806 555.494 351.995 548.67 351.983 544.008L368.008 544.005Z"/>
	<path fill="#093E64" d="M320.018 576.008L352.009 576.01L351.995 592L335.982 591.996L320.027 592.016L320.018 576.008Z"/>
	<path fill="#F4F6F7" d="M367.959 399.989L383.984 399.98L384.021 416.03L384.025 432L399.978 432.027L400.022 448.008L415.973 447.991L431.95 447.996L432.007 464.016L448.01 463.999L448.006 480.011L464.013 480.021L464.007 496.035L464.024 528.024L415.976 527.974L400.019 527.991L384.003 528.003C379.367 528.032 372.303 528.949 367.983 527.614L367.986 512.029L336.056 511.976L336.013 496.008L336.028 479.913L335.98 463.967L351.987 463.978L352.019 432.02L352.046 416.066L367.962 416.037L367.959 399.989Z"/>
	<path fill="#D0E8F2" d="M367.985 464.057L383.954 463.994L384.01 480.015L368.086 479.944L367.985 464.057Z"/>
	<path fill="#093E64" d="M352.019 432.02L352.046 416.066L367.962 416.037L367.989 431.979L352.019 432.02Z"/>
	<path fill="#108EC7" d="M336.013 496.008L367.997 496.009L367.986 512.029L336.056 511.976L336.013 496.008Z"/>
	<path fill="#89BBD5" d="M448.01 463.999L448.006 480.011L464.013 480.021L464.007 496.035L432.017 496.004L399.986 496.011L399.985 479.997L416.003 480.003L415.965 463.996L432.007 464.016L448.01 463.999Z"/>
	<path fill="#84B1CD" d="M432.017 496.004L464.007 496.035L464.024 528.024L415.976 527.974L400.019 527.991L384.003 528.003C379.367 528.032 372.303 528.949 367.983 527.614L367.986 512.029L367.997 496.009L399.986 496.011L432.017 496.004Z"/>
	<path fill="#108EC7" d="M367.986 512.029L384.014 511.982L384.003 528.003C379.367 528.032 372.303 528.949 367.983 527.614L367.986 512.029Z"/>
	<path fill="#F4F6F7" d="M399.986 496.011L432.017 496.004L432.01 512.012L399.987 512.021L399.986 496.011Z"/>
	<path fill="#AB8159" d="M463.982 335.99L496.014 335.994L496.01 352.009L496.013 367.996L511.962 368.042L512.005 384.018L527.956 384.044L528.025 400.026L559.984 399.985L560.002 423.598C560.001 425.963 560.565 429.833 559.671 431.964L543.998 431.989L511.947 432.029L511.975 448.014L496.037 447.969L495.908 464.061L496.009 480.028L479.977 480.005L464.013 480.021L448.006 480.011L448.01 463.999L432.007 464.016L431.95 447.996L415.973 447.991L400.022 448.008L399.978 432.027L384.025 432L384.021 416.03L383.984 399.98L384.022 384.029L399.955 383.955L400.027 368.03L415.945 367.986L431.999 368.001L432.018 352.021L432.053 336.029L463.982 335.99Z"/>
	<path fill="#093E64" d="M464.018 431.993L464 416.008L479.985 415.998L479.99 431.99L464.018 431.993Z"/>
	<path fill="#093E64" d="M384.021 416.03L400.003 415.99L399.978 432.027L384.025 432L384.021 416.03Z"/>
	<path fill="#093E64" d="M431.999 368.001L447.939 368.007L447.996 384.003C442.894 383.461 437.185 384.013 432.022 383.999L431.999 368.001Z"/>
	<path fill="#093E64" d="M399.978 432.027L416.001 431.989L415.973 447.991L400.022 448.008L399.978 432.027Z"/>
	<path fill="#E4C292" d="M399.955 383.955L416.465 383.993L416.232 384.644C415.717 386.209 415.969 388.324 415.967 389.959L416.002 399.998L400.025 400.023L399.955 383.955Z"/>
	<path fill="#D0E8F2" d="M431.95 447.996L447.994 448.009L448.01 463.999L432.007 464.016L431.95 447.996Z"/>
	<path fill="#F4F6F7" d="M384.022 384.029L399.955 383.955L400.025 400.023L383.984 399.98L384.022 384.029Z"/>
	<path fill="#093E64" d="M496.026 415.986L495.995 400.007L528.025 400.026L527.993 415.968L496.026 415.986Z"/>
	<path fill="#F4F6F7" d="M415.945 367.986L431.999 368.001L432.022 383.999L416.465 383.993L399.955 383.955L400.027 368.03L415.945 367.986Z"/>
	<path fill="#89BBD5" d="M479.99 431.99L496.006 431.985L496.037 447.969L463.999 447.959L447.994 448.009L447.959 432.003L464.018 431.993L479.99 431.99Z"/>
	<path fill="#108EC7" d="M463.999 447.959L496.037 447.969L495.908 464.061L496.009 480.028L479.977 480.005L464.013 480.021L448.006 480.011L448.01 463.999L447.994 448.009L463.999 447.959Z"/>
	<path fill="#D0E8F2" d="M463.999 447.959L496.037 447.969L495.908 464.061L463.999 464.011L463.999 447.959Z"/>
	<path fill="#F4F6F7" d="M528.025 400.026L559.984 399.985L560.002 423.598C560.001 425.963 560.565 429.833 559.671 431.964L543.998 431.989L511.947 432.029L511.975 448.014L496.037 447.969L496.006 431.985L479.99 431.99L479.985 415.998L496.026 415.986L527.993 415.968L528.025 400.026Z"/>
	<path fill="#E4C292" d="M463.982 335.99L496.014 335.994L496.01 352.009L496.013 367.996L496.001 399.995L463.999 400.015L464.008 383.994L447.996 384.003L447.939 368.007L431.999 368.001L432.018 352.021L432.053 336.029L463.982 335.99Z"/>
	<path fill="#AB8159" d="M448.005 351.998L464.001 352.012L464.005 367.998L447.939 368.007L448.005 351.998Z"/>
	<path fill="#F4F6F7" d="M432.018 352.021L448.005 351.998L447.939 368.007L431.999 368.001L432.018 352.021Z"/>
	<path fill="#074978" d="M432.018 352.021L432.053 336.029L463.982 335.99L464.001 352.012L448.005 351.998L432.018 352.021Z"/>
</svg>
