<?xml version="1.0" encoding="utf-8" ?>
<svg xmlns="http://www.w3.org/2000/svg" xmlns:xlink="http://www.w3.org/1999/xlink" width="897" height="897">
	<path fill="#0E2A72" transform="scale(0.876223 0.876223)" d="M560.026 240.029L560.049 224.046L575.924 224.026L575.953 240.026L560.026 240.029Z"/>
	<path fill="#061966" transform="scale(0.876223 0.876223)" d="M96.0504 351.938L96.0539 336.053L111.966 336.026L111.999 352L96.0504 351.938Z"/>
	<path fill="#061966" transform="scale(0.876223 0.876223)" d="M64.0462 687.958L79.9765 687.977L80.0022 703.998L64.1024 703.987L64.0462 687.958Z"/>
	<path fill="#061966" transform="scale(0.876223 0.876223)" d="M400.046 399.93L400.091 384.041L416.003 384.005L415.995 399.997L400.046 399.93Z"/>
	<path fill="#061966" transform="scale(0.876223 0.876223)" d="M159.959 400.032L175.923 400.045L176 415.993L160.047 416.015L159.959 400.032Z"/>
	<path fill="#061966" transform="scale(0.876223 0.876223)" d="M960.002 432.006L975.93 432.041L975.95 448.035L960.041 447.99L960.002 432.006Z"/>
	<path fill="#0E2A72" transform="scale(0.876223 0.876223)" d="M544.006 256.004L544.08 240.068L560.026 240.029L559.996 250.77C559.989 252.478 560.202 254.36 559.7 255.998L544.006 256.004Z"/>
	<path fill="#0E2A72" transform="scale(0.876223 0.876223)" d="M480.009 320.014L480.069 304.029L496.013 304.014L495.968 319.964L480.009 320.014Z"/>
	<path fill="#0E2A72" transform="scale(0.876223 0.876223)" d="M591.973 256.028L607.97 256.04L607.962 272.032L592.03 271.995L591.973 256.028Z"/>
	<path fill="#061966" transform="scale(0.876223 0.876223)" d="M480.019 767.976L464.016 768.002L464.028 752.022L479.993 752.019L480.019 767.976Z"/>
	<path fill="#0E2A72" transform="scale(0.876223 0.876223)" d="M496.013 304.014L496.075 288.01L511.988 287.989L511.99 303.977L496.013 304.014Z"/>
	<path fill="#0E2A72" transform="scale(0.876223 0.876223)" d="M464.018 336.017L464.041 320.03L480.009 320.014L479.974 335.935L464.018 336.017Z"/>
	<path fill="#061966" transform="scale(0.876223 0.876223)" d="M191.992 432.008L207.975 432.002L207.968 448.029L192.014 448.01L191.992 432.008Z"/>
	<path fill="#061966" transform="scale(0.876223 0.876223)" d="M975.95 448.035L991.978 448.008L991.98 464.016L976.02 463.999L975.95 448.035Z"/>
	<path fill="#0E2A72" transform="scale(0.876223 0.876223)" d="M511.988 287.989L512.043 272.025L528.009 272.011L527.991 282.764C527.987 284.441 528.231 286.365 527.676 287.955L511.988 287.989Z"/>
	<path fill="#061966" transform="scale(0.876223 0.876223)" d="M208.114 560.277C209.669 559.764 211.596 560.004 213.232 559.999L223.969 559.976L223.988 576.032L207.99 575.991L207.964 560.804L208.114 560.277Z"/>
	<path fill="#061966" transform="scale(0.876223 0.876223)" d="M64.0278 463.971L80.0058 463.99L80.0158 479.983L64.0136 480.02L64.0278 463.971Z"/>
	<path fill="#0E2A72" transform="scale(0.876223 0.876223)" d="M607.962 272.032L623.994 272.026L624.007 287.992L608.07 287.906L607.962 272.032Z"/>
	<path fill="#0E2A72" transform="scale(0.876223 0.876223)" d="M448.012 352.01L448.021 336.013L464.018 336.017C464.028 339.428 463.426 344.104 464.105 347.362L463.969 352.003L448.012 352.01Z"/>
	<path fill="#8B3E39" transform="scale(0.876223 0.876223)" d="M351.997 655.976L367.977 655.946L368.012 671.991L352.194 671.977C351.488 666.999 352.011 661.041 351.997 655.976Z"/>
	<path fill="#0E2A72" transform="scale(0.876223 0.876223)" d="M575.953 240.026L591.996 240.011L591.973 256.028L576.01 256.007L575.953 240.026Z"/>
	<path fill="#061966" transform="scale(0.876223 0.876223)" d="M143.987 639.987L143.994 624.018L159.987 623.985L160 640.032L143.987 639.987Z"/>
	<path fill="#061966" transform="scale(0.876223 0.876223)" d="M48.0176 671.979L63.9985 672.001L64.0462 687.958L48.0073 688.015L48.0176 671.979Z"/>
	<path fill="#061966" transform="scale(0.876223 0.876223)" d="M175.989 607.988L175.994 592.018L191.989 591.987L192.013 608.029L175.989 607.988Z"/>
	<path fill="#061966" transform="scale(0.876223 0.876223)" d="M656.04 319.968L672.01 320.009L672.04 335.993L655.999 335.972L656.04 319.968Z"/>
	<path fill="#061966" transform="scale(0.876223 0.876223)" d="M128.022 640.024L143.987 639.987L144.006 656.045L128.007 656.004L128.022 640.024Z"/>
	<path fill="#061966" transform="scale(0.876223 0.876223)" d="M111.999 352L128.024 351.972L128.01 367.989L112.021 368.001L111.999 352Z"/>
	<path fill="#061966" transform="scale(0.876223 0.876223)" d="M704.009 783.996L720.06 784.021L720.046 800.016L704.035 800.007L704.009 783.996Z"/>
	<path fill="#061966" transform="scale(0.876223 0.876223)" d="M736.004 736.006L751.986 735.978L752.014 752.039L735.976 751.976L736.004 736.006Z"/>
	<path fill="#0E2A72" transform="scale(0.876223 0.876223)" d="M528.009 272.011L528.018 255.984L544.006 256.004L544.016 271.99L528.009 272.011Z"/>
	<path fill="#061966" transform="scale(0.876223 0.876223)" d="M159.987 623.985L159.995 608.021L175.989 607.988L176.024 624.04L159.987 623.985Z"/>
	<path fill="#0E2A72" transform="scale(0.876223 0.876223)" d="M624.007 287.992L639.985 287.998L639.977 304.02L624.017 303.984L624.007 287.992Z"/>
	<path fill="#061966" transform="scale(0.876223 0.876223)" d="M192.449 576.009L207.99 575.991L208.024 592.041L191.989 591.987L191.925 578.082L192.449 576.009Z"/>
	<path fill="#061966" transform="scale(0.876223 0.876223)" d="M720.016 752.007L735.976 751.976L736.006 768.044L725.242 768.015C723.592 768.013 721.626 767.737 720.08 768.329L719.941 768.008L720.016 752.007Z"/>
	<path fill="#061966" transform="scale(0.876223 0.876223)" d="M848 624.004L848.001 608.005L864.01 607.997L864.017 624.056L848 624.004Z"/>
	<path fill="#3D5B76" transform="scale(0.876223 0.876223)" d="M399.988 639.991L415.991 639.974L416.006 656.026L400.026 656.001L399.988 639.991Z"/>
	<path fill="#F0B66C" transform="scale(0.876223 0.876223)" d="M559.7 255.998L559.952 256.149L559.991 272.02L544.016 271.99L544.006 256.004L559.7 255.998Z"/>
	<path fill="#F6E3B4" transform="scale(0.876223 0.876223)" d="M527.676 287.955L527.925 288.083L528.002 304.013L511.99 303.977L511.988 287.989L527.676 287.955Z"/>
	<path fill="#F0B66C" transform="scale(0.876223 0.876223)" d="M480.009 320.014L495.968 319.964L495.89 335.978L479.974 335.935L480.009 320.014Z"/>
	<path fill="#061966" transform="scale(0.876223 0.876223)" d="M128.01 367.989L144.051 367.97L144.018 383.981L128.007 383.988L128.01 367.989Z"/>
	<path fill="#F6E3B4" transform="scale(0.876223 0.876223)" d="M736.073 720.183L752.026 720.02L751.986 735.978L736.004 736.006L736.073 720.183Z"/>
	<path fill="#F0B66C" transform="scale(0.876223 0.876223)" d="M496.013 304.014L511.99 303.977L511.997 319.953L495.968 319.964L496.013 304.014Z"/>
	<path fill="#061966" transform="scale(0.876223 0.876223)" d="M176 415.993L191.992 415.9L191.992 432.008L176.011 431.963L176 415.993Z"/>
	<path fill="#F6E3B4" transform="scale(0.876223 0.876223)" d="M703.991 768.002L719.941 768.008L720.08 768.329L720.06 784.021L704.009 783.996L703.991 768.002Z"/>
	<path fill="#F5964B" transform="scale(0.876223 0.876223)" d="M495.917 720.019L495.979 703.868L512.521 703.821C511.318 708.648 511.933 715.044 512.002 720.037L495.917 720.019Z"/>
	<path fill="#0E2A72" transform="scale(0.876223 0.876223)" d="M352.059 415.944L352.077 400.029L383.995 399.982L383.993 415.977L367.973 415.982L352.059 415.944Z"/>
	<path fill="#061966" transform="scale(0.876223 0.876223)" d="M752.016 703.986L767.976 704.034L767.996 735.979L751.986 735.978L752.026 720.02L752.016 703.986Z"/>
	<path fill="#9D4241" transform="scale(0.876223 0.876223)" d="M528.002 304.013L543.988 304.027L544.021 319.69C538.747 320.288 533.319 319.993 528.017 319.945L511.997 319.953L511.99 303.977L528.002 304.013Z"/>
	<path fill="#061966" transform="scale(0.876223 0.876223)" d="M560.025 736.017L591.999 736.022L591.999 752.022L560.038 752.024L560.025 736.017Z"/>
	<path fill="#061966" transform="scale(0.876223 0.876223)" d="M767.99 656.015L783.992 656.014L784 687.995L767.979 687.986L767.99 656.015Z"/>
	<path fill="#0E2A72" transform="scale(0.876223 0.876223)" d="M832.004 383.995L864.003 383.995L863.991 394.595C863.992 396.367 863.758 398.207 864.362 399.886L864.008 399.991L832.044 399.956L832.004 383.995Z"/>
	<path fill="#061966" transform="scale(0.876223 0.876223)" d="M991.98 464.016L1007.98 463.959L1007.99 496.009L991.961 495.956L991.98 464.016Z"/>
	<path fill="#0E2A72" transform="scale(0.876223 0.876223)" d="M880.022 400.035L912.032 400.009L912.029 415.975L896.022 416.001L880.025 416.012L880.022 400.035Z"/>
	<path fill="#061966" transform="scale(0.876223 0.876223)" d="M31.954 368.015L47.9983 367.998L48.0409 399.962L31.9992 400.027L31.954 368.015Z"/>
	<path fill="#061966" transform="scale(0.876223 0.876223)" d="M96.0117 656.039L112.006 656.011L128.007 656.004L128.02 672.069L112.001 671.999L96.2086 672.005C95.202 667.49 95.9953 660.773 96.0117 656.039Z"/>
	<path fill="#F46A34" transform="scale(0.876223 0.876223)" d="M96.0117 656.039L112.006 656.011L112.001 671.999L96.2086 672.005C95.202 667.49 95.9953 660.773 96.0117 656.039Z"/>
	<path fill="#061966" transform="scale(0.876223 0.876223)" d="M912.017 591.994L912.005 575.987L944.009 576.005L944.033 592.005L912.017 591.994Z"/>
	<path fill="#061966" transform="scale(0.876223 0.876223)" d="M96.2086 672.005L112.001 671.999L112.05 688.037L79.9765 687.977L79.9915 672.014L96.2086 672.005Z"/>
	<path fill="#0E2A72" transform="scale(0.876223 0.876223)" d="M639.977 304.02L656.041 304.01L656.04 319.968L640.018 320.041L624.012 319.994L624.017 303.984L639.977 304.02Z"/>
	<path fill="#C23F32" transform="scale(0.876223 0.876223)" d="M624.017 303.984L639.977 304.02L640.018 320.041L624.012 319.994L624.017 303.984Z"/>
	<path fill="#061966" transform="scale(0.876223 0.876223)" d="M944.013 560.01L960.01 560.004L960.022 544.009L976.047 544.024L976.032 560.064L960.052 560.061L960.031 576.042L944.009 576.005L944.013 560.01Z"/>
	<path fill="#EA4A2E" transform="scale(0.876223 0.876223)" d="M976.02 463.999L991.98 464.016L991.961 495.956L976.064 496.001L975.997 480.01L976.02 463.999Z"/>
	<path fill="#FCFBF9" transform="scale(0.876223 0.876223)" d="M560.002 719.998L592.01 719.973L591.999 736.022L560.025 736.017L560.002 719.998Z"/>
	<path fill="#0E2A72" transform="scale(0.876223 0.876223)" d="M736.023 352.003L783.984 352.018L783.99 368.01L751.974 367.983L736.17 368.002C735.413 363.123 736.022 357.003 736.023 352.003Z"/>
	<path fill="#061966" transform="scale(0.876223 0.876223)" d="M240.007 464.008L240.036 448.036L288.006 448.006L287.988 464.021L256.062 463.985L240.007 464.008Z"/>
	<path fill="#061966" transform="scale(0.876223 0.876223)" d="M783.99 368.01L831.99 368.025L832.004 383.995L784.031 384.005L783.99 368.01Z"/>
	<path fill="#061966" transform="scale(0.876223 0.876223)" d="M207.968 448.029L223.973 448.027L224.002 464.025L240.007 464.008L239.998 480.005L208.016 479.987L207.968 448.029Z"/>
	<path fill="#061966" transform="scale(0.876223 0.876223)" d="M319.885 704.08L324.089 704.132C322.718 704.217 321.238 704.153 319.978 704.75L320.013 715.034C320.017 716.642 320.25 718.47 319.75 720.002L272.029 719.999L271.987 704.027L319.885 704.08Z"/>
	<path fill="#061966" transform="scale(0.876223 0.876223)" d="M368.012 671.991L383.92 672.023L383.967 688.016L368.234 688.01L368.079 704.041L336.036 704.074L336.014 688.031L368.018 687.998L368.012 671.991Z"/>
	<path fill="#D74A32" transform="scale(0.876223 0.876223)" d="M544.016 271.99L559.991 272.02L559.993 288.013L544.388 287.993C543.096 292.4 543.97 299.329 543.988 304.027L528.002 304.013L527.925 288.083L527.676 287.955C528.231 286.365 527.987 284.441 527.991 282.764L528.009 272.011L544.016 271.99Z"/>
	<path fill="#0E2A72" transform="scale(0.876223 0.876223)" d="M544.016 271.99L559.991 272.02L559.993 288.013L544.388 287.993C543.755 286.402 544.023 284.462 544.02 282.759L544.016 271.99Z"/>
	<path fill="#F1B37E" transform="scale(0.876223 0.876223)" d="M527.925 288.083L544.388 287.993C543.096 292.4 543.97 299.329 543.988 304.027L528.002 304.013L527.925 288.083Z"/>
	<path fill="#D74A32" transform="scale(0.876223 0.876223)" d="M464.018 336.017L479.974 335.935L495.89 335.978L496.016 352.011L480.021 351.998L480.02 367.986L463.979 368.094L463.969 352.003L464.105 347.362C463.426 344.104 464.028 339.428 464.018 336.017Z"/>
	<path fill="#EA4A2E" transform="scale(0.876223 0.876223)" d="M464.018 336.017L479.974 335.935L480.021 351.998L465.25 352.139C463.979 350.814 464.239 349.15 464.105 347.362C463.426 344.104 464.028 339.428 464.018 336.017Z"/>
	<path fill="#9D4241" transform="scale(0.876223 0.876223)" d="M479.974 335.935L495.89 335.978L496.016 352.011L480.021 351.998L479.974 335.935Z"/>
	<path fill="#FCFBF9" transform="scale(0.876223 0.876223)" d="M79.9969 351.981L96.0504 351.938L111.999 352L112.021 368.001L79.9694 368.005L63.9909 368.037L63.9955 352.002L79.9969 351.981Z"/>
	<path fill="#F48A43" transform="scale(0.876223 0.876223)" d="M512.521 703.821L528.002 703.938L527.997 727.066C527.994 729.746 528.534 733.538 527.713 736.03L516.319 736.018C514.923 736.019 513.303 735.783 512.019 736.406C510.695 735.781 509.052 736.013 507.617 736.009L496.002 736.004L495.917 720.019L512.002 720.037C511.933 715.044 511.318 708.648 512.521 703.821Z"/>
	<path fill="#F0B66C" transform="scale(0.876223 0.876223)" d="M495.917 720.019L512.002 720.037L512.019 736.406C510.695 735.781 509.052 736.013 507.617 736.009L496.002 736.004L495.917 720.019Z"/>
	<path fill="#061966" transform="scale(0.876223 0.876223)" d="M480.019 767.976L526.054 768.02L537.974 768.042C539.938 768.047 542.079 767.843 543.992 768.251L544 783.986L480.058 783.985L480.019 767.976Z"/>
	<path fill="#061966" transform="scale(0.876223 0.876223)" d="M48.0409 399.962L63.9876 399.992L63.9978 416.022L64.0052 432.022L64.0278 463.971L48.0313 464.017L48.0409 399.962Z"/>
	<path fill="#061966" transform="scale(0.876223 0.876223)" d="M912.029 415.975L959.984 416.027L960.002 432.006L944.021 432.016L912.109 431.985L896.113 431.911L896.022 416.001L912.029 415.975Z"/>
	<path fill="#67A07C" transform="scale(0.876223 0.876223)" d="M912.029 415.975L912.109 431.985L896.113 431.911L896.022 416.001L912.029 415.975Z"/>
	<path fill="#EA4A2E" transform="scale(0.876223 0.876223)" d="M495.968 319.964L511.997 319.953L528.017 319.945L527.966 335.975L528.045 352.004L512.038 352.012L496.016 352.011L495.89 335.978L495.968 319.964Z"/>
	<path fill="#9D4241" transform="scale(0.876223 0.876223)" d="M512.306 335.97L527.966 335.975L528.045 352.004L512.038 352.012C512.007 346.853 511.424 341.034 512.306 335.97Z"/>
	<path fill="#F48A43" transform="scale(0.876223 0.876223)" d="M511.997 319.953L528.017 319.945L527.966 335.975L512.306 335.97L512.062 335.796L511.997 319.953Z"/>
	<path fill="#0E2A72" transform="scale(0.876223 0.876223)" d="M416.003 384.005L416.041 368.017L432.04 368.012L432.036 352.009L448.012 352.01L463.969 352.003L463.979 368.094L463.987 384.003L448.011 383.993L431.951 383.984L416.003 384.005Z"/>
	<path fill="#F46A34" transform="scale(0.876223 0.876223)" d="M448.012 352.01L463.969 352.003L463.979 368.094L447.993 368.018L448.012 352.01Z"/>
	<path fill="#061966" transform="scale(0.876223 0.876223)" d="M48.0051 639.907L59.4501 639.976C60.9364 639.988 62.6793 639.775 63.9755 640.595L63.9985 672.001L48.0176 671.979L32.0223 672.017L32.0431 655.965L16.0369 656.008L16.0455 640.037L31.9662 640.027L48.0051 639.907Z"/>
	<path fill="#8B3E39" transform="scale(0.876223 0.876223)" d="M48.0051 639.907L59.4501 639.976C60.9364 639.988 62.6793 639.775 63.9755 640.595L63.9985 672.001L48.0176 671.979L48.0051 639.907Z"/>
	<path fill="#654243" transform="scale(0.876223 0.876223)" d="M368.022 624.004L384.015 624L384.011 640.02L399.988 639.991L400.026 656.001L367.977 655.946L351.997 655.976L352.023 640.008L352.036 624.013L368.022 624.004Z"/>
	<path fill="#C23F32" transform="scale(0.876223 0.876223)" d="M352.036 624.013L368.022 624.004L367.977 655.946L351.997 655.976L352.023 640.008L352.036 624.013Z"/>
	<path fill="#061966" transform="scale(0.876223 0.876223)" d="M31.9663 351.947L16.0424 351.99L16.0665 336.053L32.0221 336.03L32.0168 320.015L79.9822 320.003L79.9969 351.981L63.9955 352.002L64.0191 336.003L47.9829 335.988L47.9958 352.002L31.9663 351.947Z"/>
	<path fill="#F5964B" transform="scale(0.876223 0.876223)" d="M112.021 368.001L128.01 367.989L128.007 383.988L95.9733 383.938L95.9534 394.764C95.9506 396.384 95.6829 398.488 95.9739 400.026L96.0177 416.027L63.9978 416.022L63.9876 399.992L80.001 399.997L79.9694 368.005L112.021 368.001Z"/>
	<path fill="#EA4A2E" transform="scale(0.876223 0.876223)" d="M63.9231 624.005L79.9785 623.996L79.9858 640.013L96.018 640.033L96.0117 656.039C95.9953 660.773 95.202 667.49 96.2086 672.005L79.9915 672.014L79.9765 687.977L64.0462 687.958L63.9985 672.001L63.9755 640.595L64.0948 640.064L63.9231 624.005Z"/>
	<path fill="#C23F32" transform="scale(0.876223 0.876223)" d="M31.9663 351.947L47.9958 352.002L47.9829 335.988L64.0191 336.003L63.9955 352.002L63.9909 368.037L79.9694 368.005L80.001 399.997L63.9876 399.992L48.0409 399.962L47.9983 367.998L31.954 368.015L31.9663 351.947Z"/>
	<path fill="#FCFBF9" transform="scale(0.876223 0.876223)" d="M288.002 655.951L304.02 656.021L304.023 688.003L319.577 688.014C320.681 689.752 320.376 701.831 319.885 704.08L271.987 704.027L271.99 687.994L272.039 655.981L288.002 655.951Z"/>
	<path fill="#061966" transform="scale(0.876223 0.876223)" d="M271.99 687.994L272.039 655.981L288.002 655.951L287.991 687.975L271.99 687.994Z"/>
	<path fill="#EA4A2E" transform="scale(0.876223 0.876223)" d="M544.034 688.009L560.011 687.998L560.043 703.993L560.002 719.998L560.025 736.017L544.033 736.056L543.978 751.982L528.077 751.984L512.028 752L512.019 736.406C513.303 735.783 514.923 736.019 516.319 736.018L527.713 736.03C528.534 733.538 527.994 729.746 527.997 727.066L528.002 703.938L528 687.993L544.034 688.009Z"/>
	<path fill="#A93A30" transform="scale(0.876223 0.876223)" d="M528.081 736.221L544.033 736.056L543.978 751.982L528.077 751.984L528.081 736.221Z"/>
	<path fill="#C23F32" transform="scale(0.876223 0.876223)" d="M544.034 688.009L560.011 687.998L560.043 703.993L560.002 719.998L560.025 736.017L544.033 736.056L544.026 703.972L544.034 688.009Z"/>
	<path fill="#654243" transform="scale(0.876223 0.876223)" d="M544.034 688.009L560.011 687.998L560.043 703.993L544.026 703.972L544.034 688.009Z"/>
	<path fill="#FCFBF9" transform="scale(0.876223 0.876223)" d="M512.038 352.012L528.045 352.004L544.024 352.026L544.002 367.99L528.015 367.991L527.983 383.979L479.971 384.001L463.987 384.003L463.979 368.094L480.02 367.986L480.021 351.998L496.016 352.011L512.038 352.012Z"/>
	<path fill="#0E2A72" transform="scale(0.876223 0.876223)" d="M512.038 352.012L528.045 352.004L544.024 352.026L544.002 367.99L528.015 367.991L480.02 367.986L480.021 351.998L496.016 352.011L512.038 352.012Z"/>
	<defs>
		<linearGradient id="gradient_0" gradientUnits="userSpaceOnUse" x1="316.96628" y1="691.138" x2="367.74777" y2="676.01007">
			<stop offset="0" stop-color="#F3FAF0"/>
			<stop offset="1" stop-color="#FEF9FA"/>
		</linearGradient>
	</defs>
	<path fill="url(#gradient_0)" transform="scale(0.876223 0.876223)" d="M304.02 656.021L319.998 655.96L336.019 655.97L351.997 655.976C352.011 661.041 351.488 666.999 352.194 671.977L368.012 671.991L368.018 687.998L336.014 688.031L336.036 704.074L324.089 704.132L319.885 704.08C320.376 701.831 320.681 689.752 319.577 688.014L304.023 688.003L304.02 656.021Z"/>
	<path fill="#A93A30" transform="scale(0.876223 0.876223)" d="M336.019 655.97L351.997 655.976C352.011 661.041 351.488 666.999 352.194 671.977L336.041 671.988L336.019 655.97Z"/>
	<path fill="#F46A34" transform="scale(0.876223 0.876223)" d="M304.02 656.021L319.998 655.96L336.019 655.97L336.041 671.988L319.968 672.008L320.03 683.828C320.038 685.312 320.29 686.684 319.577 688.014L304.023 688.003L304.02 656.021Z"/>
	<path fill="#FCFBF9" transform="scale(0.876223 0.876223)" d="M271.88 592.024L303.975 592.098L304.031 607.995L319.907 608.035L319.998 655.96L304.02 656.021L303.957 640.022L288.114 640.277L287.988 624.028L271.983 624.073L271.885 608.009L271.88 592.024Z"/>
	<path fill="#C23F32" transform="scale(0.876223 0.876223)" d="M271.885 608.009L287.979 608.006L287.988 624.028L271.983 624.073L271.885 608.009Z"/>
	<path fill="#FCFBF9" transform="scale(0.876223 0.876223)" d="M496.002 736.004L507.617 736.009C509.052 736.013 510.695 735.781 512.019 736.406L512.028 752L528.077 751.984L543.978 751.982L544.033 736.056L560.025 736.017L560.038 752.024L560.028 768.467C554.939 768.452 548.981 768.975 543.992 768.251C542.079 767.843 539.938 768.047 537.974 768.042L526.054 768.02L480.019 767.976L479.993 752.019L480.022 736.028L496.002 736.004Z"/>
	<path fill="#FCF3D8" transform="scale(0.876223 0.876223)" d="M544.033 736.056L560.025 736.017L560.038 752.024L543.978 751.982L544.033 736.056Z"/>
	<path fill="#8B3E39" transform="scale(0.876223 0.876223)" d="M624.205 688.001L639.994 687.96L640.008 704.095L624.328 703.97L624.012 704.122L624.014 720.007L608.024 719.989L592.01 719.973L560.002 719.998L560.043 703.993L560.011 687.998L624.205 688.001Z"/>
	<path fill="#061966" transform="scale(0.876223 0.876223)" d="M608.024 719.989L607.988 704.006L624.012 704.122L624.014 720.007L608.024 719.989Z"/>
	<path fill="#FCFBF9" transform="scale(0.876223 0.876223)" d="M751.974 367.983L783.99 368.01L784.031 384.005L832.004 383.995L832.044 399.956L815.992 400.015L815.996 416.03L768.002 416.005L767.995 384.013L751.984 384.135L751.974 367.983Z"/>
	<path fill="#F46A34" transform="scale(0.876223 0.876223)" d="M207.944 543.973L224.005 543.947L223.969 559.976L213.232 559.999C211.596 560.004 209.669 559.764 208.114 560.277L207.964 560.804L207.99 575.991L192.449 576.009L191.925 578.082L191.989 591.987L175.994 592.018L175.989 607.988L159.995 608.021L159.987 623.985L143.994 624.018L143.987 639.987L128.022 640.024L127.999 623.985L127.985 608L143.989 607.986L144.017 592.014L144.036 576.967L144.628 576.253C149.291 575.315 155.188 575.965 159.995 575.942L175.994 575.961L175.994 559.985L175.985 544.053L192.034 543.988L207.944 543.973Z"/>
	<path fill="#9D4241" transform="scale(0.876223 0.876223)" d="M144.036 576.967L144.628 576.253C149.291 575.315 155.188 575.965 159.995 575.942L159.99 591.984L144.017 592.014L144.036 576.967Z"/>
	<path fill="#9D4241" transform="scale(0.876223 0.876223)" d="M192.034 543.988L191.985 559.988L175.994 559.985L175.985 544.053L192.034 543.988Z"/>
	<path fill="#918967" transform="scale(0.876223 0.876223)" d="M207.944 543.973L224.005 543.947L223.969 559.976L213.232 559.999C211.596 560.004 209.669 559.764 208.114 560.277L207.944 543.973Z"/>
	<path fill="#061966" transform="scale(0.876223 0.876223)" d="M976.064 496.001L991.961 495.956L991.983 511.967L976.262 511.959C975.73 513.553 975.986 515.49 975.992 517.166L976.043 527.996L976.047 544.024L960.022 544.009L960.01 560.004L944.013 560.01L896.049 560.011L896.036 544.004L896.01 528.018L928.021 528.02L927.992 512.016L944.006 512.02L944.039 496.006L960.007 496.016L976.064 496.001Z"/>
	<path fill="#42BDE6" transform="scale(0.876223 0.876223)" d="M944.039 496.006L960.007 496.016L960.019 512.028L944.006 512.02L944.039 496.006Z"/>
	<path fill="#FCF3D8" transform="scale(0.876223 0.876223)" d="M943.968 544.035L943.979 527.989L960.123 527.989L976.043 527.996L976.047 544.024L960.022 544.009L960.01 560.004L944.013 560.01L896.049 560.011L896.036 544.004L943.968 544.035Z"/>
	<path fill="#F6E3B4" transform="scale(0.876223 0.876223)" d="M943.968 544.035L943.979 527.989L960.123 527.989L960.06 544.096L943.968 544.035Z"/>
	<path fill="#D74A32" transform="scale(0.876223 0.876223)" d="M560.026 240.029L575.953 240.026L576.01 256.007L591.973 256.028L592.03 271.995L607.962 272.032L608.07 287.906L624.007 287.992L624.017 303.984L624.012 319.994L607.985 320.02L591.998 320.01L575.995 319.934L560.073 320.017L544.135 319.92L544.021 319.69L543.988 304.027C543.97 299.329 543.096 292.4 544.388 287.993L559.993 288.013L559.991 272.02L559.952 256.149L559.7 255.998C560.202 254.36 559.989 252.478 559.996 250.77L560.026 240.029Z"/>
	<path fill="#EA4A2E" transform="scale(0.876223 0.876223)" d="M591.974 287.972L603.192 288.031C604.766 288.04 606.505 287.753 607.932 288.453L607.991 304.009L592.484 303.918C591.871 302.442 592.066 300.449 592.051 298.854L591.974 287.972Z"/>
	<path fill="#F6E3B4" transform="scale(0.876223 0.876223)" d="M575.994 272.009L591.994 272.015L591.974 287.972L576.08 287.77L575.994 272.009Z"/>
	<path fill="#D74A32" transform="scale(0.876223 0.876223)" d="M576.08 287.77L591.974 287.972L592.051 298.854C592.066 300.449 591.871 302.442 592.484 303.918L591.911 304.02L575.987 304.015C576.012 298.859 576.591 293.035 575.699 287.977L576.08 287.77Z"/>
	<path fill="#EA4A2E" transform="scale(0.876223 0.876223)" d="M559.952 256.149L575.964 256.02L575.994 272.009L576.08 287.77L575.699 287.977L559.993 288.013L559.991 272.02L559.952 256.149Z"/>
	<path fill="#A93A30" transform="scale(0.876223 0.876223)" d="M591.911 304.02L592.484 303.918L607.991 304.009L607.985 320.02L591.998 320.01L575.995 319.934L575.987 304.015L591.911 304.02Z"/>
	<path fill="#0E2A72" transform="scale(0.876223 0.876223)" d="M575.987 304.015L591.911 304.02L591.998 320.01L575.995 319.934L575.987 304.015Z"/>
	<path fill="#C23F32" transform="scale(0.876223 0.876223)" d="M608.07 287.906L624.007 287.992L624.017 303.984L624.012 319.994L607.985 320.02L607.991 304.009L607.932 288.453L608.07 287.906Z"/>
	<path fill="#3D5B76" transform="scale(0.876223 0.876223)" d="M607.991 304.009L624.017 303.984L624.012 319.994L607.985 320.02L607.991 304.009Z"/>
	<path fill="#F6E3B4" transform="scale(0.876223 0.876223)" d="M544.388 287.993L559.993 288.013L575.699 287.977C576.591 293.035 576.012 298.859 575.987 304.015L575.995 319.934L560.073 320.017L544.135 319.92L544.021 319.69L543.988 304.027C543.97 299.329 543.096 292.4 544.388 287.993Z"/>
	<path fill="#0E2A72" transform="scale(0.876223 0.876223)" d="M559.993 288.013L575.699 287.977C576.591 293.035 576.012 298.859 575.987 304.015L560.017 304.004L559.993 288.013Z"/>
	<path fill="#654243" transform="scale(0.876223 0.876223)" d="M719.976 671.979L720.001 656.005L735.985 656.012L767.99 656.015L767.979 687.986L767.976 704.034L752.016 703.986L752.026 720.02L736.073 720.183L736.004 736.006L735.976 751.976L720.016 752.007L719.941 768.008L703.991 768.002L703.992 687.989L720.002 687.998L719.976 671.979Z"/>
	<path fill="#8B3E39" transform="scale(0.876223 0.876223)" d="M720.001 719.993L720.003 704.002L735.99 703.984L735.99 715.614C735.988 717.032 736.187 718.64 735.683 719.985L720.001 719.993Z"/>
	<path fill="#061966" transform="scale(0.876223 0.876223)" d="M719.976 671.979L720.001 656.005L735.985 656.012L736.012 672.01L719.976 671.979Z"/>
	<path fill="#C23F32" transform="scale(0.876223 0.876223)" d="M735.99 703.984L752.016 703.986L752.026 720.02L736.073 720.183L735.683 719.985C736.187 718.64 735.988 717.032 735.99 715.614L735.99 703.984Z"/>
	<path fill="#D74A32" transform="scale(0.876223 0.876223)" d="M735.683 719.985L736.073 720.183L736.004 736.006L735.976 751.976L720.016 752.007L720.001 719.993L735.683 719.985Z"/>
	<path fill="#F46A34" transform="scale(0.876223 0.876223)" d="M896.113 431.911L912.109 431.985L944.021 432.016L960.002 432.006L960.041 447.99L975.95 448.035L976.02 463.999L975.997 480.01L976.064 496.001L960.007 496.016L944.039 496.006L928.072 496.01L895.963 495.984L895.924 448.022L895.933 432.438L896.113 431.911Z"/>
	<path fill="#3D5B76" transform="scale(0.876223 0.876223)" d="M944.021 432.016L960.002 432.006L960.041 447.99L944.016 448.007L944.021 432.016Z"/>
	<path fill="#918967" transform="scale(0.876223 0.876223)" d="M896.113 431.911L912.109 431.985L912.002 448.003L895.924 448.022L895.933 432.438L896.113 431.911Z"/>
	<path fill="#C23F32" transform="scale(0.876223 0.876223)" d="M975.997 480.01L976.064 496.001L960.007 496.016L944.039 496.006L943.959 480.029L975.997 480.01Z"/>
	<path fill="#F6E3B4" transform="scale(0.876223 0.876223)" d="M895.963 495.984L928.072 496.01L944.039 496.006L944.006 512.02L927.992 512.016L928.021 528.02L896.01 528.018L896.036 544.004L896.049 560.011L880.005 560.009L880.014 592.004L831.99 591.971L831.991 576.038L831.986 544.004L848.002 544.016L847.983 528.01L880.009 528.021L879.995 511.994L879.978 495.987L895.963 495.984Z"/>
	<path fill="#FCF3D8" transform="scale(0.876223 0.876223)" d="M928.072 496.01L944.039 496.006L944.006 512.02L927.992 512.016L928.072 496.01Z"/>
	<path fill="#061966" transform="scale(0.876223 0.876223)" d="M463.99 656.005L544.003 656.056L544 672.002L608.478 671.989L719.976 671.979L720.002 687.998L703.992 687.989L703.991 768.002L704.009 783.996L688.004 784.038L688.049 687.9L639.994 687.96L624.205 688.001L560.011 687.998L544.034 688.009L528 687.993L528.042 671.968L464.022 672.004L463.99 656.005Z"/>
	<path fill="#F48A43" transform="scale(0.876223 0.876223)" d="M160 512.03L176.011 511.967L175.985 544.053L175.994 559.985L175.994 575.961L159.995 575.942C155.188 575.965 149.291 575.315 144.628 576.253L144.036 576.967L144.017 592.014L143.989 607.986L127.985 608L127.999 623.985L128.022 640.024L128.007 656.004L112.006 656.011L96.0117 656.039L96.018 640.033L79.9858 640.013L79.9785 623.996L79.9032 613.862C80.2612 611.682 79.9501 608.917 79.9532 606.682L79.9719 591.987L95.9953 591.973L95.9818 575.996L112.002 575.988L111.99 560.002L128 559.993L127.99 544.002L144 543.993L143.928 528.017L160 527.997L160 512.03Z"/>
	<path fill="#EA4A2E" transform="scale(0.876223 0.876223)" d="M127.985 592L127.965 575.998L143.764 576.015L144.036 576.967L144.017 592.014L127.985 592Z"/>
	<path fill="#A93A30" transform="scale(0.876223 0.876223)" d="M143.764 576.015C144.749 571.426 143.994 564.799 143.99 560.004L175.994 559.985L175.994 575.961L159.995 575.942C155.188 575.965 149.291 575.315 144.628 576.253L144.036 576.967L143.764 576.015Z"/>
	<path fill="#9D4241" transform="scale(0.876223 0.876223)" d="M127.985 592L144.017 592.014L143.989 607.986L127.985 608L127.999 623.985L112.022 623.997L112.006 592.008L127.985 592Z"/>
	<path fill="#0E2A72" transform="scale(0.876223 0.876223)" d="M544.021 319.69L544.135 319.92L560.073 320.017L575.995 319.934L591.998 320.01L607.985 320.02L624.012 319.994L640.018 320.041L656.04 319.968L655.999 335.972L672.04 335.993L704.175 336.016L719.993 335.998L719.964 351.418L719.985 351.958L736.023 352.003C736.022 357.003 735.413 363.123 736.17 368.002L735.766 384.016L720.011 384.098C716.655 383.647 712.797 384.017 709.366 384.014L688.006 383.999L655.998 383.996L624.006 383.998L623.969 351.989L591.991 351.997L560.015 351.987L544.024 352.026L528.045 352.004L527.966 335.975L528.017 319.945C533.319 319.993 538.747 320.288 544.021 319.69Z"/>
	<path fill="#061966" transform="scale(0.876223 0.876223)" d="M704.175 336.016L719.993 335.998L719.964 351.418L704.069 351.622C703.814 346.717 703.473 340.855 704.175 336.016Z"/>
	<path fill="#C23F32" transform="scale(0.876223 0.876223)" d="M607.985 320.02L624.012 319.994L624.029 336.003L607.997 336.022L607.985 320.02Z"/>
	<path fill="#3D5B76" transform="scale(0.876223 0.876223)" d="M640.018 320.041L656.04 319.968L655.999 335.972L624.029 336.003L624.012 319.994L640.018 320.041Z"/>
	<path fill="#D74A32" transform="scale(0.876223 0.876223)" d="M560.073 320.017L575.995 319.934L591.998 320.01L592.02 336.015L576.018 336.01L560.032 336.007L560.073 320.017Z"/>
	<path fill="#8B3E39" transform="scale(0.876223 0.876223)" d="M560.073 320.017L575.995 319.934L576.018 336.01L560.032 336.007L560.073 320.017Z"/>
	<path fill="#A93A30" transform="scale(0.876223 0.876223)" d="M544.021 319.69L544.135 319.92L560.073 320.017L560.032 336.007L544.073 336.104L544.024 352.026L528.045 352.004L527.966 335.975L528.017 319.945C533.319 319.993 538.747 320.288 544.021 319.69Z"/>
	<path fill="#D74A32" transform="scale(0.876223 0.876223)" d="M527.966 335.975L544.073 336.104L544.024 352.026L528.045 352.004L527.966 335.975Z"/>
	<path fill="#C23F32" transform="scale(0.876223 0.876223)" d="M544.135 319.92L560.073 320.017L560.032 336.007L544.073 336.104L544.135 319.92Z"/>
	<path fill="#C3D2D0" transform="scale(0.876223 0.876223)" d="M623.969 351.989L655.99 351.997L655.998 383.996L624.006 383.998L623.969 351.989Z"/>
	<path fill="#43B4CC" transform="scale(0.876223 0.876223)" d="M655.99 351.997L671.961 351.988L687.977 351.988L688.01 368.223L688.006 383.999L655.998 383.996L655.99 351.997Z"/>
	<path fill="#42BDE6" transform="scale(0.876223 0.876223)" d="M671.961 351.988L687.977 351.988L688.01 368.223C682.84 367.633 677.22 368.022 671.997 368.009L671.961 351.988Z"/>
	<path fill="#C3D2D0" transform="scale(0.876223 0.876223)" d="M719.985 351.958L736.023 352.003C736.022 357.003 735.413 363.123 736.17 368.002L735.766 384.016L720.011 384.098C716.655 383.647 712.797 384.017 709.366 384.014L688.006 383.999L688.01 368.223L687.977 351.988L719.985 351.958Z"/>
	<path fill="#42BDE6" transform="scale(0.876223 0.876223)" d="M719.985 351.958L736.023 352.003C736.022 357.003 735.413 363.123 736.17 368.002L735.766 384.016L720.011 384.098L719.985 351.958Z"/>
	<path fill="#F48A43" transform="scale(0.876223 0.876223)" d="M128.007 383.988L144.018 383.981L159.951 384.005L159.959 400.032L160.047 416.015L176 415.993L176.011 431.963L191.992 432.008L192.014 448.01L207.968 448.029L208.016 479.987L191.992 480.057L175.926 479.858L175.707 479.993C176.632 485.024 175.994 490.916 175.947 496.053L176.011 511.967L160 512.03L144.002 512.002C144.021 506.9 144.625 501.039 143.685 496.046L127.993 496.021L128.019 479.995L111.994 480.008L111.991 463.676L111.993 447.996L96.0781 448.01L96.0364 432.037L96.0177 416.027L95.9739 400.026C95.6829 398.488 95.9506 396.384 95.9534 394.764L95.9733 383.938L128.007 383.988Z"/>
	<path fill="#061966" transform="scale(0.876223 0.876223)" d="M144.018 383.981L159.951 384.005L159.959 400.032L144.014 400.014L144.018 383.981Z"/>
	<path fill="#F5964B" transform="scale(0.876223 0.876223)" d="M160.047 416.015L176 415.993L176.011 431.963C170.88 431.864 164.984 432.661 159.992 431.634L160.047 416.015Z"/>
	<path fill="#A93A30" transform="scale(0.876223 0.876223)" d="M160.018 448.005L176.005 447.998L176.005 463.99L160.036 463.974L160.018 448.005Z"/>
	<path fill="#A93A30" transform="scale(0.876223 0.876223)" d="M95.9739 400.026L112.002 399.996L111.99 416.008L128.002 415.998L127.99 432.008L143.955 432.021L143.994 447.997L127.978 447.998L111.993 447.996L96.0781 448.01L96.0364 432.037L96.0177 416.027L95.9739 400.026Z"/>
	<path fill="#F0B66C" transform="scale(0.876223 0.876223)" d="M96.0364 432.037L112.001 432.007L111.993 447.996L96.0781 448.01L96.0364 432.037Z"/>
	<path fill="#F0B66C" transform="scale(0.876223 0.876223)" d="M143.955 432.021L159.797 432.077L160.018 448.005L160.036 463.974L176.005 463.99L175.926 479.858L175.707 479.993C176.632 485.024 175.994 490.916 175.947 496.053L176.011 511.967L160 512.03L144.002 512.002C144.021 506.9 144.625 501.039 143.685 496.046L127.993 496.021L128.019 479.995L111.994 480.008L111.991 463.676L111.993 447.996L127.978 447.998L143.994 447.997L143.955 432.021Z"/>
	<path fill="#F5964B" transform="scale(0.876223 0.876223)" d="M128.019 479.995L144.009 479.937L144.078 495.892L143.685 496.046L127.993 496.021L128.019 479.995Z"/>
	<path fill="#F46A34" transform="scale(0.876223 0.876223)" d="M144.078 495.892L160.045 496.017L175.947 496.053L176.011 511.967L160 512.03L144.002 512.002C144.021 506.9 144.625 501.039 143.685 496.046L144.078 495.892Z"/>
	<path fill="#C23F32" transform="scale(0.876223 0.876223)" d="M160.045 496.017L175.947 496.053L176.011 511.967L160 512.03L160.045 496.017Z"/>
	<path fill="#EA4A2E" transform="scale(0.876223 0.876223)" d="M143.955 432.021L159.797 432.077L160.018 448.005L160.036 463.974L176.005 463.99L175.926 479.858L175.707 479.993L160.005 479.999L159.988 464.02L127.992 463.995L127.978 447.998L143.994 447.997L143.955 432.021Z"/>
	<path fill="#9D4241" transform="scale(0.876223 0.876223)" d="M63.9978 416.022L96.0177 416.027L96.0364 432.037L96.0781 448.01L111.993 447.996L111.991 463.676L111.994 480.008L128.019 479.995L127.993 496.021L143.685 496.046C144.625 501.039 144.021 506.9 144.002 512.002L160 512.03L160 527.997L143.928 528.017L144 543.993L127.99 544.002L128 559.993L111.99 560.002L112.002 575.988L95.9818 575.996L95.9953 591.973L79.9719 591.987L79.9532 606.682C79.9501 608.917 80.2612 611.682 79.9032 613.862L79.9785 623.996L63.9231 624.005L64.0948 640.064L63.9755 640.595C62.6793 639.775 60.9364 639.988 59.4501 639.976L48.0051 639.907L31.9662 640.027L31.9529 623.992L32.0004 608.007L48.0004 608.013L47.9955 591.996L48.0153 576.024L64.0106 576.02L64.0015 559.997L64.0271 544.008L80.0127 544.005L80.0086 527.996L80.0098 496.012L80.0158 479.983L80.0058 463.99L64.0278 463.971L64.0052 432.022L63.9978 416.022Z"/>
	<path fill="#8B3E39" transform="scale(0.876223 0.876223)" d="M63.9231 624.005L63.9994 608.053L79.5009 608.122C79.5487 609.836 79.4806 611.667 79.7861 613.354L79.9032 613.862L79.9785 623.996L63.9231 624.005Z"/>
	<path fill="#061966" transform="scale(0.876223 0.876223)" d="M64.0015 559.997L64.0271 544.008L80.0127 544.005L80.0005 560.001L64.0015 559.997Z"/>
	<path fill="#061966" transform="scale(0.876223 0.876223)" d="M47.9955 591.996L48.0153 576.024L64.0106 576.02L64.0007 592.001L47.9955 591.996Z"/>
	<path fill="#061966" transform="scale(0.876223 0.876223)" d="M31.9529 623.992L32.0004 608.007L48.0004 608.013L48.0004 624.002L31.9529 623.992Z"/>
	<path fill="#EA4A2E" transform="scale(0.876223 0.876223)" d="M111.994 480.008L128.019 479.995L127.993 496.021L111.995 496.026L111.994 480.008Z"/>
	<path fill="#061966" transform="scale(0.876223 0.876223)" d="M80.0098 496.012L96.0062 495.989L96.0013 528.001L80.0086 527.996L80.0098 496.012Z"/>
	<path fill="#EA4A2E" transform="scale(0.876223 0.876223)" d="M63.9978 416.022L96.0177 416.027L96.0364 432.037L64.0052 432.022L63.9978 416.022Z"/>
	<path fill="#F0B66C" transform="scale(0.876223 0.876223)" d="M832.044 399.956L864.008 399.991L864.362 399.886L880.022 400.035L880.025 416.012L896.022 416.001L896.113 431.911L895.933 432.438L895.924 448.022L895.963 495.984L879.978 495.987L879.995 511.994L864.011 512.015L864.033 495.99L848.012 496.01L848.027 480.006L831.99 480.003L832.011 464.219C826.845 463.57 821.241 464.003 816.021 464.007L735.99 464.012L736.006 431.983L735.99 415.993L751.969 415.999L768.002 416.005L815.996 416.03L815.992 400.015L832.044 399.956Z"/>
	<path fill="#F6E3B4" transform="scale(0.876223 0.876223)" d="M832.01 447.998L831.997 432.027L848.012 432.031L848.006 448.002L832.01 447.998Z"/>
	<path fill="#FCFBF9" transform="scale(0.876223 0.876223)" d="M832.044 399.956L864.008 399.991L863.999 416.036L832.004 416.038L832.044 399.956Z"/>
	<path fill="#0E2A72" transform="scale(0.876223 0.876223)" d="M880.206 432.072L890.72 432.025C892.386 432.037 894.391 431.789 895.933 432.438L895.924 448.022L895.963 495.984L879.978 495.987L879.995 511.994L864.011 512.015L864.033 495.99L848.012 496.01L848.027 480.006L831.99 480.003L832.011 464.219L832.01 447.998L848.006 448.002L848.012 432.031L870.473 432.009C873.247 432.01 877.419 431.482 880.008 432.319L880.206 432.072Z"/>
	<path fill="#F6E3B4" transform="scale(0.876223 0.876223)" d="M880.206 432.072L890.72 432.025C892.386 432.037 894.391 431.789 895.933 432.438L895.924 448.022L879.988 448.014L880.008 432.319L880.206 432.072Z"/>
	<path fill="#FCFBF9" transform="scale(0.876223 0.876223)" d="M848.006 448.002L864.025 447.99L864.02 464.021L848.005 464.022L848.006 448.002Z"/>
	<path fill="#F46A34" transform="scale(0.876223 0.876223)" d="M735.99 464.012L816.021 464.007C821.241 464.003 826.845 463.57 832.011 464.219L831.99 480.003L848.027 480.006L848.012 496.01L864.033 495.99L864.011 512.015L879.995 511.994L880.009 528.021L847.983 528.01L848.002 544.016L831.986 544.004L831.991 576.038L831.99 591.971L816.03 592.005L799.989 591.992L783.991 591.986L783.902 576.025L768.058 576.006L752.014 575.99L751.902 560.023L752.44 559.935C751.751 558.696 752.017 557.003 752.015 555.623L752.023 544.018C747.464 544.047 740.234 544.99 736.022 543.612L735.994 528.081L735.999 480.048L735.99 464.012Z"/>
	<path fill="#C23F32" transform="scale(0.876223 0.876223)" d="M799.925 576.016L815.99 576.009L816.03 592.005L799.989 591.992C800.284 590.375 800.008 588.226 799.998 586.564L799.925 576.016Z"/>
	<path fill="#A93A30" transform="scale(0.876223 0.876223)" d="M783.902 576.025L784.444 575.931L799.925 576.016L799.998 586.564C800.008 588.226 800.284 590.375 799.989 591.992L783.991 591.986L783.902 576.025Z"/>
	<path fill="#D74A32" transform="scale(0.876223 0.876223)" d="M768.332 559.977L784.015 559.98L784.007 571.614C784.009 572.995 783.737 574.7 784.444 575.931L783.902 576.025L768.058 576.006L767.93 560.149L768.332 559.977Z"/>
	<path fill="#EA4A2E" transform="scale(0.876223 0.876223)" d="M752.023 544.018L768.062 543.986L768.034 554.757C768.032 556.45 767.782 558.369 768.332 559.977L767.93 560.149C763.027 559.551 757.414 559.973 752.44 559.935C751.751 558.696 752.017 557.003 752.015 555.623L752.023 544.018Z"/>
	<path fill="#A93A30" transform="scale(0.876223 0.876223)" d="M751.902 560.023L752.44 559.935C757.414 559.973 763.027 559.551 767.93 560.149L768.058 576.006L752.014 575.99L751.902 560.023Z"/>
	<path fill="#F1B37E" transform="scale(0.876223 0.876223)" d="M816.021 464.007C821.241 464.003 826.845 463.57 832.011 464.219L831.99 480.003L815.909 480.01L816.021 464.007Z"/>
	<path fill="#EA4A2E" transform="scale(0.876223 0.876223)" d="M815.99 576.009L815.956 544.001L831.986 544.004L831.991 576.038L831.99 591.971L816.03 592.005L815.99 576.009Z"/>
	<path fill="#918967" transform="scale(0.876223 0.876223)" d="M815.99 576.009L831.991 576.038L831.99 591.971L816.03 592.005L815.99 576.009Z"/>
	<defs>
		<linearGradient id="gradient_1" gradientUnits="userSpaceOnUse" x1="778.82751" y1="498.73746" x2="774.8252" y2="460.53702">
			<stop offset="0" stop-color="#F8823C"/>
			<stop offset="1" stop-color="#E69A54"/>
		</linearGradient>
	</defs>
	<path fill="url(#gradient_1)" transform="scale(0.876223 0.876223)" d="M735.99 464.012L816.021 464.007L815.909 480.01L815.988 496.011L751.962 496.067L752.092 479.977L735.999 480.048L735.99 464.012Z"/>
	<path fill="#67A07C" transform="scale(0.876223 0.876223)" d="M208.022 528.011L287.989 528.009L287.991 544.021L319.974 544.008L319.98 560.042L351.974 560.016L351.98 576.042L383.972 576.022L383.98 592.042L415.974 592.013L415.98 608.042L463.971 608.023L463.98 624.042L559.974 624.016L559.97 640.015L656.013 639.992L672.038 639.988L672.078 624.121L672.323 623.99C671.796 622.651 672.006 621.035 672.007 619.616L672.031 607.993L703.991 608.006C703.98 603.046 704.9 596.759 703.681 592.009L703.919 591.867L704 575.987L704.026 559.996L688.103 559.958L688.002 544.028L704.026 544.017L719.992 543.803L720.592 543.99C725.198 544.018 731.675 544.903 736.022 543.612C740.234 544.99 747.464 544.047 752.023 544.018L752.015 555.623C752.017 557.003 751.751 558.696 752.44 559.935L751.902 560.023L752.014 575.99L768.058 576.006L783.902 576.025L783.991 591.986L799.989 591.992L816.03 592.005L831.99 591.971L880.014 592.004L880.005 560.009L896.049 560.011L944.013 560.01L944.009 576.005L912.005 575.987L912.017 591.994L895.709 592.011L895.94 608.038L864.01 607.997L848.001 608.005L848 624.004L848 640.002L800.013 639.989L783.955 640.007L783.992 656.014L767.99 656.015L735.985 656.012L720.001 656.005L719.976 671.979L608.478 671.989L544 672.002L544.003 656.056L463.99 656.005L448.01 656.024L448.008 639.988L415.991 639.974L399.988 639.991L384.011 640.02L384.015 624L368.022 624.004L352.036 624.013L352.023 640.008L351.997 655.976L336.019 655.97L319.998 655.96L319.907 608.035L304.031 607.995L303.975 592.098L271.88 592.024L256.692 592.241L256.029 592.295L255.99 575.993L256.002 559.997L223.969 559.976L224.005 543.947L207.944 543.973L208.022 528.011Z"/>
	<path fill="#061966" transform="scale(0.876223 0.876223)" d="M304.019 575.988L320.01 575.983L319.996 592.008C315.521 592.029 308.178 592.978 304.076 591.573L304.019 575.988Z"/>
	<path fill="#061966" transform="scale(0.876223 0.876223)" d="M448.008 639.988L464.01 639.983L463.99 656.005L448.01 656.024L448.008 639.988Z"/>
	<path fill="#061966" transform="scale(0.876223 0.876223)" d="M319.996 592.008L336.009 591.983L335.934 607.982L320.446 607.942C319.762 606.694 320.021 605.006 320.015 603.62L319.996 592.008Z"/>
	<path fill="#C23F32" transform="scale(0.876223 0.876223)" d="M304.076 591.573C308.178 592.978 315.521 592.029 319.996 592.008L320.015 603.62C320.021 605.006 319.762 606.694 320.446 607.942L319.907 608.035L304.031 607.995L303.975 592.098L304.076 591.573Z"/>
	<path fill="#061966" transform="scale(0.876223 0.876223)" d="M256.002 559.997L288.01 559.982L287.966 575.969L255.99 575.993L256.002 559.997Z"/>
	<path fill="#061966" transform="scale(0.876223 0.876223)" d="M224.005 543.947L256.012 543.98L256.002 559.997L223.969 559.976L224.005 543.947Z"/>
	<path fill="#061966" transform="scale(0.876223 0.876223)" d="M352.008 607.996L384.011 607.98L384.015 624L368.022 624.004L352.036 624.013L352.008 607.996Z"/>
	<path fill="#061966" transform="scale(0.876223 0.876223)" d="M800.013 639.989L799.996 624.001L848 624.004L848 640.002L800.013 639.989Z"/>
	<path fill="#061966" transform="scale(0.876223 0.876223)" d="M672.323 623.99L720.014 623.977L720.007 640.002L672.038 639.988L672.078 624.121L672.323 623.99Z"/>
	<path fill="#F1B37E" transform="scale(0.876223 0.876223)" d="M287.966 575.969L304.019 575.988L304.076 591.573L303.975 592.098L271.88 592.024L256.692 592.241L256.029 592.295L255.99 575.993L287.966 575.969Z"/>
	<path fill="#061966" transform="scale(0.876223 0.876223)" d="M768.058 576.006L783.902 576.025L783.991 591.986L768 591.996L768.006 608.003L736.118 607.964L735.988 607.674L736.022 591.993L752.018 592.009L752.014 575.99L768.058 576.006Z"/>
	<path fill="#C23F32" transform="scale(0.876223 0.876223)" d="M735.988 607.674L736.118 607.964L735.984 623.99L720.014 623.977L672.323 623.99C671.796 622.651 672.006 621.035 672.007 619.616L672.031 607.993L703.991 608.006L725.266 608.03C728.707 608.029 732.627 608.43 735.988 607.674Z"/>
	<path fill="#F48A43" transform="scale(0.876223 0.876223)" d="M319.907 608.035L320.446 607.942L335.934 607.982L352.008 607.996L352.036 624.013L352.023 640.008L351.997 655.976L336.019 655.97L319.998 655.96L319.907 608.035Z"/>
	<path fill="#A93A30" transform="scale(0.876223 0.876223)" d="M335.934 607.982L352.008 607.996L352.036 624.013L352.023 640.008L336.008 639.991L335.934 607.982Z"/>
	<path fill="#8B3E39" transform="scale(0.876223 0.876223)" d="M704.026 544.017L719.992 543.803L720.592 543.99C725.198 544.018 731.675 544.903 736.022 543.612C740.234 544.99 747.464 544.047 752.023 544.018L752.015 555.623C752.017 557.003 751.751 558.696 752.44 559.935L751.902 560.023L752.014 575.99L752.018 592.009L736.022 591.993L735.988 607.674C732.627 608.43 728.707 608.029 725.266 608.03L703.991 608.006C703.98 603.046 704.9 596.759 703.681 592.009L703.919 591.867L704 575.987L704.026 559.996L688.103 559.958L688.002 544.028L704.026 544.017Z"/>
	<path fill="#061966" transform="scale(0.876223 0.876223)" d="M736.018 560.011L751.902 560.023L752.014 575.99L736.002 575.97L736.018 560.011Z"/>
	<path fill="#F46A34" transform="scale(0.876223 0.876223)" d="M704 575.987L720.023 575.993L720.019 592.002C714.842 591.948 709.017 592.524 703.919 591.867L704 575.987Z"/>
	<path fill="#EA4A2E" transform="scale(0.876223 0.876223)" d="M720.019 592.002L736.022 591.993L735.988 607.674C732.627 608.43 728.707 608.029 725.266 608.03L703.991 608.006C703.98 603.046 704.9 596.759 703.681 592.009L703.919 591.867C709.017 592.524 714.842 591.948 720.019 592.002Z"/>
	<path fill="#9D4241" transform="scale(0.876223 0.876223)" d="M736.022 543.612C740.234 544.99 747.464 544.047 752.023 544.018L752.015 555.623C752.017 557.003 751.751 558.696 752.44 559.935L751.902 560.023L736.018 560.011L736.002 575.97L720.108 575.958L719.963 553.554C719.962 550.878 719.323 546.348 720.592 543.99C725.198 544.018 731.675 544.903 736.022 543.612Z"/>
	<path fill="#C23F32" transform="scale(0.876223 0.876223)" d="M736.022 543.612C740.234 544.99 747.464 544.047 752.023 544.018L752.015 555.623C752.017 557.003 751.751 558.696 752.44 559.935L751.902 560.023L736.018 560.011L736.022 543.612Z"/>
	<path fill="#1894BF" transform="scale(0.876223 0.876223)" d="M591.991 351.997L623.969 351.989L624.006 383.998L655.998 383.996L688.006 383.999L709.366 384.014C712.797 384.017 716.655 383.647 720.011 384.098L735.766 384.016L736.17 368.002L751.974 367.983L751.984 384.135L767.995 384.013L768.002 416.005L751.969 415.999L735.99 415.993L736.006 431.983L735.99 464.012L735.999 480.048L735.994 528.081L736.022 543.612C731.675 544.903 725.198 544.018 720.592 543.99L719.992 543.803L704.026 544.017L688.002 544.028L688.103 559.958L704.026 559.996L704 575.987L703.919 591.867L703.681 592.009C704.9 596.759 703.98 603.046 703.991 608.006L672.031 607.993L656.007 608.008L656.09 592.016C651.582 592.04 644.177 593.002 640.046 591.579L639.955 576.329C638.644 575.783 637.013 575.998 635.615 575.993L623.985 575.976L607.998 576.009L607.993 560.019L608.056 528.047L592.009 528.004L575.996 527.996L560.002 528.008L544.006 527.994L543.995 511.995L528.012 511.988L527.973 496.031L512.009 495.991L511.978 480.007L496.014 479.989L495.996 464.054C490.879 464.061 485.027 464.642 480.018 463.699L479.989 448.075L480.011 431.967C474.898 432.002 469.01 432.631 464.008 431.687L463.988 416.016L448 415.995L447.998 399.99L448.011 383.993L463.987 384.003L479.971 384.001L527.983 383.979L528.015 367.991L544.002 367.99L544.024 352.026L560.015 351.987L591.991 351.997Z"/>
	<path fill="#3D5B76" transform="scale(0.876223 0.876223)" d="M495.996 464.054L512.042 464.009L511.978 480.007L496.014 479.989L495.996 464.054Z"/>
	<path fill="#04759F" transform="scale(0.876223 0.876223)" d="M479.989 448.075C485.107 448.029 490.9 447.471 495.924 448.192L495.996 464.054C490.879 464.061 485.027 464.642 480.018 463.699L479.989 448.075Z"/>
	<path fill="#43B4CC" transform="scale(0.876223 0.876223)" d="M672.015 431.989L688.011 431.986L687.999 443.614C688.001 445.061 687.738 446.73 688.466 448.03L671.962 447.985L672.015 431.989Z"/>
	<path fill="#04759F" transform="scale(0.876223 0.876223)" d="M512.042 464.009C517.208 464.016 522.905 464.474 528.013 463.952L527.973 496.031L512.009 495.991L511.978 480.007L512.042 464.009Z"/>
	<path fill="#43B4CC" transform="scale(0.876223 0.876223)" d="M528.003 416.001L559.999 415.996L559.995 448.01L543.962 447.997L543.995 431.964L528 432.07L528.003 416.001Z"/>
	<path fill="#43B4CC" transform="scale(0.876223 0.876223)" d="M592.005 415.998L623.998 415.997C623.992 420.366 623.26 445.866 624.461 448.032L608.17 447.987L592.021 448.003L592.005 415.998Z"/>
	<path fill="#C3D2D0" transform="scale(0.876223 0.876223)" d="M496 415.998L528.003 416.001L528 432.07L528.019 447.992L496.277 448.035C495.127 443.902 496.008 436.461 496.012 432.001L496 415.998Z"/>
	<path fill="#C3D2D0" transform="scale(0.876223 0.876223)" d="M560.006 383.999L591.998 383.998L592.005 415.998L592.021 448.003L559.995 448.01L559.999 415.996L560.006 383.999Z"/>
	<path fill="#43B4CC" transform="scale(0.876223 0.876223)" d="M560.006 383.999L591.998 383.998L592.005 415.998L559.999 415.996L560.006 383.999Z"/>
	<path fill="#C3D2D0" transform="scale(0.876223 0.876223)" d="M624.006 383.998L655.998 383.996L656.007 416L655.998 432.084L656.02 447.955L639.895 448.001L624.461 448.032C623.26 445.866 623.992 420.366 623.998 415.997L624.006 383.998Z"/>
	<path fill="#43B4CC" transform="scale(0.876223 0.876223)" d="M624.006 383.998L655.998 383.996L656.007 416L623.998 415.997L624.006 383.998Z"/>
	<path fill="#43B4CC" transform="scale(0.876223 0.876223)" d="M591.991 351.997L623.969 351.989L624.006 383.998L623.998 415.997L592.005 415.998L591.998 383.998L591.991 351.997Z"/>
	<path fill="#C3D2D0" transform="scale(0.876223 0.876223)" d="M591.998 383.998L624.006 383.998L623.998 415.997L592.005 415.998L591.998 383.998Z"/>
	<path fill="#04759F" transform="scale(0.876223 0.876223)" d="M559.999 463.957L582.75 464.031C585.403 464.033 589.484 464.513 592.013 463.951L592.01 496.004L592.012 511.997L560.025 511.991L560.002 528.008L544.006 527.994L543.995 511.995L528.012 511.988L527.973 496.031L544.01 496.001L543.982 480.005L560.016 480.002L559.999 463.957Z"/>
	<path fill="#1894BF" transform="scale(0.876223 0.876223)" d="M543.995 511.995L560.025 511.991L560.002 528.008L544.006 527.994L543.995 511.995Z"/>
	<path fill="#1894BF" transform="scale(0.876223 0.876223)" d="M560.025 511.991L560.001 495.997L592.01 496.004L592.012 511.997L560.025 511.991Z"/>
	<path fill="#C3D2D0" transform="scale(0.876223 0.876223)" d="M544.024 352.026L560.015 351.987L591.991 351.997L591.998 383.998L560.006 383.999L559.999 415.996L528.003 416.001L527.983 383.979L528.015 367.991L544.002 367.99L544.024 352.026Z"/>
	<path fill="#FCFBF9" transform="scale(0.876223 0.876223)" d="M544.024 352.026L560.015 351.987L560.001 368.006L544.002 367.99L544.024 352.026Z"/>
	<path fill="#43B4CC" transform="scale(0.876223 0.876223)" d="M544.002 367.99L560.001 368.006L560.006 383.999L527.983 383.979L528.015 367.991L544.002 367.99Z"/>
	<path fill="#C3D2D0" transform="scale(0.876223 0.876223)" d="M527.983 383.979L560.006 383.999L559.999 415.996L528.003 416.001L527.983 383.979Z"/>
	<path fill="#C3D2D0" transform="scale(0.876223 0.876223)" d="M463.987 384.003L479.971 384.001L527.983 383.979L528.003 416.001L496 415.998L496.012 432.001L480.011 431.967C474.898 432.002 469.01 432.631 464.008 431.687L463.988 416.016L448 415.995L447.998 399.99L448.011 383.993L463.987 384.003Z"/>
	<path fill="#43B4CC" transform="scale(0.876223 0.876223)" d="M447.998 399.99L464.008 399.984L463.988 416.016L448 415.995L447.998 399.99Z"/>
	<path fill="#43B4CC" transform="scale(0.876223 0.876223)" d="M463.988 416.016L496 415.998L496.012 432.001L480.011 431.967C474.898 432.002 469.01 432.631 464.008 431.687L463.988 416.016Z"/>
	<path fill="#43B4CC" transform="scale(0.876223 0.876223)" d="M479.971 384.001L527.983 383.979L528.003 416.001L496 415.998L496.011 400.003L479.992 400.017L479.971 384.001Z"/>
	<path fill="#C3D2D0" transform="scale(0.876223 0.876223)" d="M736.17 368.002L751.974 367.983L751.984 384.135L767.995 384.013L768.002 416.005L751.969 415.999L735.99 415.993L736.006 431.983L735.99 464.012L719.998 464.014L720.027 448.002L688.466 448.03C687.738 446.73 688.001 445.061 687.999 443.614L688.011 431.986L672.015 431.989L655.998 432.084L656.007 416L655.998 383.996L688.006 383.999L709.366 384.014C712.797 384.017 716.655 383.647 720.011 384.098L735.766 384.016L736.17 368.002Z"/>
	<path fill="#43B4CC" transform="scale(0.876223 0.876223)" d="M656.007 416L672.008 415.983L672.015 431.989L655.998 432.084L656.007 416Z"/>
	<path fill="#43B4CC" transform="scale(0.876223 0.876223)" d="M720.027 448.002L719.969 432.001L736.006 431.983L735.99 464.012L719.998 464.014L720.027 448.002Z"/>
	<path fill="#43B4CC" transform="scale(0.876223 0.876223)" d="M736.17 368.002L751.974 367.983L751.984 384.135L767.995 384.013L768.002 416.005L751.969 415.999L752.012 400.001L719.99 399.998L720.008 416.01L687.992 416.012L688.006 383.999L709.366 384.014C712.797 384.017 716.655 383.647 720.011 384.098L735.766 384.016L736.17 368.002Z"/>
	<path fill="#3FC6DB" transform="scale(0.876223 0.876223)" d="M736.17 368.002L751.974 367.983L751.984 384.135L735.766 384.016L736.17 368.002Z"/>
	<path fill="#04759F" transform="scale(0.876223 0.876223)" d="M719.998 464.014L735.99 464.012L735.999 480.048L735.994 528.081L736.022 543.612C731.675 544.903 725.198 544.018 720.592 543.99L719.992 543.803L704.026 544.017L688.002 544.028L688.103 559.958L704.026 559.996L704 575.987L703.919 591.867L703.681 592.009C704.9 596.759 703.98 603.046 703.991 608.006L672.031 607.993L656.007 608.008L656.09 592.016C651.582 592.04 644.177 593.002 640.046 591.579L639.955 576.329C638.644 575.783 637.013 575.998 635.615 575.993L623.985 575.976L607.998 576.009L607.993 560.019L608.056 528.047L592.009 528.004L575.996 527.996L560.002 528.008L560.025 511.991L592.012 511.997L592.01 496.004L608.009 495.999L607.981 480.005L624.009 480.002L623.996 464.006L639.941 464.024L656.007 463.989L655.983 480.034L688.012 480.003L688.001 464.007L719.998 464.014Z"/>
	<path fill="#061966" transform="scale(0.876223 0.876223)" d="M608.056 528.047L607.988 512.013L624.055 512.048L623.993 527.982L608.056 528.047Z"/>
	<path fill="#061966" transform="scale(0.876223 0.876223)" d="M720.013 528.015L735.994 528.081L736.022 543.612C731.675 544.903 725.198 544.018 720.592 543.99L719.992 543.803L720.013 528.015Z"/>
	<path fill="#9D4241" transform="scale(0.876223 0.876223)" d="M704.023 527.999L720.013 528.015L719.992 543.803L704.026 544.017L704.023 527.999Z"/>
	<path fill="#1894BF" transform="scale(0.876223 0.876223)" d="M687.991 512.012L688.002 495.999L719.994 496.007L720.017 511.998L704.036 511.994L687.991 512.012Z"/>
	<path fill="#061966" transform="scale(0.876223 0.876223)" d="M624.055 512.048L623.984 496.012L671.983 496.021L671.915 511.971L624.055 512.048Z"/>
	<path fill="#F6E3B4" transform="scale(0.876223 0.876223)" d="M671.915 511.971L687.991 512.012L704.036 511.994L704.023 527.999L704.026 544.017L688.002 544.028L688.103 559.958L704.026 559.996L704 575.987L703.919 591.867L703.681 592.009C704.9 596.759 703.98 603.046 703.991 608.006L672.031 607.993L656.007 608.008L656.09 592.016C651.582 592.04 644.177 593.002 640.046 591.579L639.955 576.329C638.644 575.783 637.013 575.998 635.615 575.993L623.985 575.976L607.998 576.009L607.993 560.019L608.056 528.047L623.993 527.982L624.055 512.048L671.915 511.971Z"/>
	<path fill="#D74A32" transform="scale(0.876223 0.876223)" d="M639.971 543.961L639.988 528.02L656.082 528.019L656.052 543.984L639.971 543.961Z"/>
	<path fill="#EA4A2E" transform="scale(0.876223 0.876223)" d="M607.993 560.019L624.016 560.021L624.001 543.998L639.971 543.961L640.078 575.952L639.955 576.329C638.644 575.783 637.013 575.998 635.615 575.993L623.985 575.976L607.998 576.009L607.993 560.019Z"/>
	<path fill="#EA4A2E" transform="scale(0.876223 0.876223)" d="M687.991 512.012L704.036 511.994L704.023 527.999L704.026 544.017L688.002 544.028L688.103 559.958L687.561 560.063L671.989 559.996L671.993 543.995L656.052 543.984L656.082 528.019L671.936 528.012L688.016 528.021L687.991 512.012Z"/>
	<path fill="#A93A30" transform="scale(0.876223 0.876223)" d="M656.082 528.019L671.936 528.012L671.993 543.995L656.052 543.984L656.082 528.019Z"/>
	<path fill="#F48A43" transform="scale(0.876223 0.876223)" d="M656.052 543.984L671.993 543.995L671.989 559.996L687.561 560.063L688.103 559.958L704.026 559.996L704 575.987L703.919 591.867L703.681 592.009C704.9 596.759 703.98 603.046 703.991 608.006L672.031 607.993L656.007 608.008L656.09 592.016C651.582 592.04 644.177 593.002 640.046 591.579L639.955 576.329L640.078 575.952L639.971 543.961L656.052 543.984Z"/>
	<path fill="#D74A32" transform="scale(0.876223 0.876223)" d="M656.09 592.016L703.681 592.009C704.9 596.759 703.98 603.046 703.991 608.006L672.031 607.993L656.007 608.008L656.09 592.016Z"/>
	<path fill="#F5964B" transform="scale(0.876223 0.876223)" d="M656.052 543.984L671.993 543.995L671.989 559.996L687.561 560.063C688.955 564.369 687.976 571.314 687.946 575.933L640.078 575.952L639.971 543.961L656.052 543.984Z"/>
	<path fill="#F1B37E" transform="scale(0.876223 0.876223)" d="M431.951 383.984L448.011 383.993L447.998 399.99L448 415.995L463.988 416.016L464.008 431.687C469.01 432.631 474.898 432.002 480.011 431.967L479.989 448.075L480.018 463.699C485.027 464.642 490.879 464.061 495.996 464.054L496.014 479.989L511.978 480.007L512.009 495.991L527.973 496.031L528.012 511.988L543.995 511.995L544.006 527.994L560.002 528.008L575.996 527.996L592.009 528.004L608.056 528.047L607.993 560.019L607.998 576.009L623.985 575.976L635.615 575.993C637.013 575.998 638.644 575.783 639.955 576.329L640.046 591.579C644.177 593.002 651.582 592.04 656.09 592.016L656.007 608.008L672.031 607.993L672.007 619.616C672.006 621.035 671.796 622.651 672.323 623.99L672.078 624.121L672.038 639.988L656.013 639.992L559.97 640.015L559.974 624.016L463.98 624.042L463.971 608.023L415.98 608.042L415.974 592.013L383.98 592.042L383.972 576.022L351.98 576.042L351.974 560.016L319.98 560.042L319.974 544.008L287.991 544.021L287.989 528.009L208.022 528.011L207.944 543.973L192.034 543.988L175.985 544.053L176.011 511.967L175.947 496.053C175.994 490.916 176.632 485.024 175.707 479.993L175.926 479.858L191.992 480.057L208.016 479.987L239.998 480.005L240.007 464.008L256.062 463.985L287.988 464.021L288.006 448.006L288.041 432.063L320.013 432.019L320.053 416.035L336 416.016L352.059 415.944L367.973 415.982L383.993 415.977L383.995 399.982L400.046 399.93L415.995 399.997L416.003 384.005L431.951 383.984Z"/>
	<path fill="#654243" transform="scale(0.876223 0.876223)" d="M192.012 528.009L208.022 528.011L207.944 543.973L192.034 543.988L192.012 528.009Z"/>
	<path fill="#061966" transform="scale(0.876223 0.876223)" d="M607.998 576.009L623.985 575.976L623.935 591.97L608.016 592.007L607.998 576.009Z"/>
	<path fill="#FCFBF9" transform="scale(0.876223 0.876223)" d="M416.007 528.008L416.01 512.043L432.007 512.009L431.998 528.027L416.007 528.008Z"/>
	<path fill="#918967" transform="scale(0.876223 0.876223)" d="M528.012 511.988L543.995 511.995L544.006 527.994L528.094 528.001L528.012 511.988Z"/>
	<path fill="#918967" transform="scale(0.876223 0.876223)" d="M496.014 479.989L511.978 480.007L512.009 495.991L496.015 495.999L496.014 479.989Z"/>
	<path fill="#918967" transform="scale(0.876223 0.876223)" d="M512.009 495.991L527.973 496.031L528.012 511.988L512.018 511.999L512.009 495.991Z"/>
	<path fill="#67A07C" transform="scale(0.876223 0.876223)" d="M480.018 463.699C485.027 464.642 490.879 464.061 495.996 464.054L496.014 479.989L480.015 479.999L479.864 463.982L480.018 463.699Z"/>
	<path fill="#FCFBF9" transform="scale(0.876223 0.876223)" d="M352.039 496.023L367.968 496.012L367.979 512.029L352.008 512.035L352.039 496.023Z"/>
	<path fill="#F46A34" transform="scale(0.876223 0.876223)" d="M463.991 448.015L479.989 448.075L480.018 463.699L479.864 463.982L463.979 463.987L463.991 448.015Z"/>
	<path fill="#F5964B" transform="scale(0.876223 0.876223)" d="M175.707 479.993L175.926 479.858L191.992 480.057L192.013 496.077L175.947 496.053C175.994 490.916 176.632 485.024 175.707 479.993Z"/>
	<path fill="#FCF3D8" transform="scale(0.876223 0.876223)" d="M240.007 464.008L256.062 463.985L256.047 480.036L239.998 480.005L240.007 464.008Z"/>
	<path fill="#F5964B" transform="scale(0.876223 0.876223)" d="M576.315 543.987L592.039 544.015L592.023 560.12L575.963 560.029L576.021 544.131L576.315 543.987Z"/>
	<path fill="#FCFBF9" transform="scale(0.876223 0.876223)" d="M384.006 544.03L383.984 528.019L416.007 528.008L415.999 544.027L384.006 544.03Z"/>
	<path fill="#EA4A2E" transform="scale(0.876223 0.876223)" d="M176.011 511.967L192.001 511.989L192.012 528.009L192.034 543.988L175.985 544.053L176.011 511.967Z"/>
	<path fill="#061966" transform="scale(0.876223 0.876223)" d="M592.009 528.004L608.056 528.047L607.993 560.019L607.998 576.009L592.014 576.007L592.023 560.12L592.039 544.015L592.009 528.004Z"/>
	<path fill="#918967" transform="scale(0.876223 0.876223)" d="M544.006 527.994L560.002 528.008L575.996 527.996L592.009 528.004L592.039 544.015L576.315 543.987L576.021 544.131C572.411 543.77 568.623 544.013 564.982 544.01L544.015 543.998L544.006 527.994Z"/>
	<path fill="#1894BF" transform="scale(0.876223 0.876223)" d="M575.996 527.996L592.009 528.004L592.039 544.015L576.315 543.987C575.764 542.372 576.004 540.46 576.001 538.76L575.996 527.996Z"/>
	<path fill="#8B3E39" transform="scale(0.876223 0.876223)" d="M623.985 575.976L635.615 575.993C637.013 575.998 638.644 575.783 639.955 576.329L640.046 591.579C644.177 593.002 651.582 592.04 656.09 592.016L656.007 608.008L672.031 607.993L672.007 619.616C672.006 621.035 671.796 622.651 672.323 623.99L672.078 624.121L672.038 639.988L656.013 639.992L656.013 624.004L639.948 623.98L624.016 624.002L624.021 608.024L623.935 591.97L623.985 575.976Z"/>
	<path fill="#061966" transform="scale(0.876223 0.876223)" d="M624.021 608.024L640.019 608.008L639.948 623.98L624.016 624.002L624.021 608.024Z"/>
	<path fill="#EA4A2E" transform="scale(0.876223 0.876223)" d="M640.046 591.579C644.177 593.002 651.582 592.04 656.09 592.016L656.007 608.008L639.998 607.997L639.965 592.102L640.046 591.579Z"/>
	<path fill="#3D5B76" transform="scale(0.876223 0.876223)" d="M656.013 624.004L672.078 624.121L672.038 639.988L656.013 639.992L656.013 624.004Z"/>
	<path fill="#D74A32" transform="scale(0.876223 0.876223)" d="M623.985 575.976L635.615 575.993C637.013 575.998 638.644 575.783 639.955 576.329L640.046 591.579L639.965 592.102C634.838 591.559 629.119 591.981 623.935 591.97L623.985 575.976Z"/>
	<path fill="#FCFBF9" transform="scale(0.876223 0.876223)" d="M432.048 496.006L480.016 496.018L480.014 512.008L496.012 512.018L496.015 528.005L512.013 528.019L512 544.065L480.011 544.033L479.993 527.985L464.034 528.03L464.02 511.966L432.007 512.009L432.048 496.006Z"/>
	<path fill="#F6E3B4" transform="scale(0.876223 0.876223)" d="M431.951 383.984L448.011 383.993L447.998 399.99L448 415.995L463.988 416.016L464.008 431.687C469.01 432.631 474.898 432.002 480.011 431.967L479.989 448.075L463.991 448.015L463.979 463.987L463.986 479.994L432.017 480.044L432.048 496.006L367.968 496.012L352.039 496.023L303.961 496.079L303.963 480.014L256.047 480.036L256.062 463.985L287.988 464.021L288.006 448.006L288.041 432.063L320.013 432.019L320.053 416.035L336 416.016L352.059 415.944L367.973 415.982L383.993 415.977L383.995 399.982L400.046 399.93L415.995 399.997L416.003 384.005L431.951 383.984Z"/>
	<path fill="#FCFBF9" transform="scale(0.876223 0.876223)" d="M416.003 384.005L431.951 383.984L431.983 400L415.995 399.997L416.003 384.005Z"/>
	<path fill="#F1B37E" transform="scale(0.876223 0.876223)" d="M352.039 496.023L352.008 479.994L368.017 479.959L367.968 496.012L352.039 496.023Z"/>
	<path fill="#FCFBF9" transform="scale(0.876223 0.876223)" d="M448 415.995L463.988 416.016L464.008 431.687L463.852 431.973L448.013 432.016L448 415.995Z"/>
	<path fill="#C3D2D0" transform="scale(0.876223 0.876223)" d="M464.008 431.687C469.01 432.631 474.898 432.002 480.011 431.967L479.989 448.075L463.991 448.015L463.852 431.973L464.008 431.687Z"/>
	<path fill="#FCFBF9" transform="scale(0.876223 0.876223)" d="M352.059 415.944L367.973 415.982L367.991 432.049L400.001 432.055L399.964 448.045L432.006 448.062L431.981 463.999L287.988 464.021L288.006 448.006L288.041 432.063L320.013 432.019L320.053 416.035L336 416.016L352.059 415.944Z"/>
	<path fill="#061966" transform="scale(0.876223 0.876223)" d="M320.013 432.019L320.053 416.035L336 416.016L335.992 431.972L320.013 432.019Z"/>
	<path fill="#061966" transform="scale(0.876223 0.876223)" d="M288.006 448.006L288.041 432.063L320.013 432.019L319.989 447.98L288.006 448.006Z"/>
</svg>
